<svg xmlns="http://www.w3.org/2000/svg" version="1.1" xmlns:xlink="http://www.w3.org/1999/xlink"
  xmlns:svgjs="http://svgjs.dev/svgjs" viewBox="0 0 2400 800">
  <defs>
    <linearGradient x1="50%" y1="0%" x2="50%" y2="100%" id="oooscillate-grad">
      <stop stop-color="hsl(230, 79%, 42%)" stop-opacity="1" offset="0%"></stop>
      <stop stop-color="#536ed8" stop-opacity="1" offset="100%"></stop>
    </linearGradient>
  </defs>
  <g stroke-width="2" stroke="#3558e3" fill="none" stroke-linecap="round">
    <path d="M 0 732 Q 600 335 1200 400 Q 1800 465 2400 732" opacity="0.67"></path>
    <path d="M 0 720 Q 600 335 1200 400 Q 1800 465 2400 720" opacity="0.69"></path>
    <path d="M 0 708 Q 600 335 1200 400 Q 1800 465 2400 708" opacity="0.27"></path>
    <path d="M 0 696 Q 600 335 1200 400 Q 1800 465 2400 696" opacity="0.70"></path>
    <path d="M 0 684 Q 600 335 1200 400 Q 1800 465 2400 684" opacity="0.70"></path>
    <path d="M 0 672 Q 600 335 1200 400 Q 1800 465 2400 672" opacity="0.88"></path>
    <path d="M 0 660 Q 600 335 1200 400 Q 1800 465 2400 660" opacity="0.36"></path>
    <path d="M 0 648 Q 600 335 1200 400 Q 1800 465 2400 648" opacity="0.89"></path>
    <path d="M 0 636 Q 600 335 1200 400 Q 1800 465 2400 636" opacity="0.28"></path>
    <path d="M 0 624 Q 600 335 1200 400 Q 1800 465 2400 624" opacity="0.21"></path>
    <path d="M 0 612 Q 600 335 1200 400 Q 1800 465 2400 612" opacity="0.48"></path>
    <path d="M 0 600 Q 600 335 1200 400 Q 1800 465 2400 600" opacity="0.61"></path>
    <path d="M 0 588 Q 600 335 1200 400 Q 1800 465 2400 588" opacity="0.92"></path>
    <path d="M 0 576 Q 600 335 1200 400 Q 1800 465 2400 576" opacity="0.48"></path>
    <path d="M 0 564 Q 600 335 1200 400 Q 1800 465 2400 564" opacity="0.93"></path>
    <path d="M 0 552 Q 600 335 1200 400 Q 1800 465 2400 552" opacity="0.32"></path>
    <path d="M 0 540 Q 600 335 1200 400 Q 1800 465 2400 540" opacity="0.38"></path>
    <path d="M 0 528 Q 600 335 1200 400 Q 1800 465 2400 528" opacity="0.71"></path>
    <path d="M 0 516 Q 600 335 1200 400 Q 1800 465 2400 516" opacity="0.24"></path>
    <path d="M 0 504 Q 600 335 1200 400 Q 1800 465 2400 504" opacity="0.69"></path>
    <path d="M 0 492 Q 600 335 1200 400 Q 1800 465 2400 492" opacity="0.66"></path>
    <path d="M 0 480 Q 600 335 1200 400 Q 1800 465 2400 480" opacity="0.08"></path>
    <path d="M 0 468 Q 600 335 1200 400 Q 1800 465 2400 468" opacity="0.83"></path>
    <path d="M 0 456 Q 600 335 1200 400 Q 1800 465 2400 456" opacity="0.53"></path>
    <path d="M 0 444 Q 600 335 1200 400 Q 1800 465 2400 444" opacity="0.83"></path>
    <path d="M 0 432 Q 600 335 1200 400 Q 1800 465 2400 432" opacity="0.56"></path>
    <path d="M 0 420 Q 600 335 1200 400 Q 1800 465 2400 420" opacity="0.78"></path>
    <path d="M 0 408 Q 600 335 1200 400 Q 1800 465 2400 408" opacity="0.44"></path>
    <path d="M 0 396 Q 600 335 1200 400 Q 1800 465 2400 396" opacity="0.90"></path>
    <path d="M 0 384 Q 600 335 1200 400 Q 1800 465 2400 384" opacity="0.47"></path>
    <path d="M 0 372 Q 600 335 1200 400 Q 1800 465 2400 372" opacity="0.37"></path>
    <path d="M 0 360 Q 600 335 1200 400 Q 1800 465 2400 360" opacity="0.41"></path>
    <path d="M 0 348 Q 600 335 1200 400 Q 1800 465 2400 348" opacity="0.12"></path>
    <path d="M 0 336 Q 600 335 1200 400 Q 1800 465 2400 336" opacity="0.99"></path>
    <path d="M 0 324 Q 600 335 1200 400 Q 1800 465 2400 324" opacity="0.88"></path>
    <path d="M 0 312 Q 600 335 1200 400 Q 1800 465 2400 312" opacity="0.79"></path>
    <path d="M 0 300 Q 600 335 1200 400 Q 1800 465 2400 300" opacity="0.40"></path>
    <path d="M 0 288 Q 600 335 1200 400 Q 1800 465 2400 288" opacity="0.58"></path>
    <path d="M 0 276 Q 600 335 1200 400 Q 1800 465 2400 276" opacity="0.74"></path>
    <path d="M 0 264 Q 600 335 1200 400 Q 1800 465 2400 264" opacity="0.51"></path>
    <path d="M 0 252 Q 600 335 1200 400 Q 1800 465 2400 252" opacity="0.15"></path>
    <path d="M 0 240 Q 600 335 1200 400 Q 1800 465 2400 240" opacity="0.18"></path>
    <path d="M 0 228 Q 600 335 1200 400 Q 1800 465 2400 228" opacity="0.08"></path>
    <path d="M 0 216 Q 600 335 1200 400 Q 1800 465 2400 216" opacity="0.18"></path>
    <path d="M 0 204 Q 600 335 1200 400 Q 1800 465 2400 204" opacity="0.83"></path>
    <path d="M 0 192 Q 600 335 1200 400 Q 1800 465 2400 192" opacity="0.91"></path>
    <path d="M 0 180 Q 600 335 1200 400 Q 1800 465 2400 180" opacity="0.62"></path>
    <path d="M 0 168 Q 600 335 1200 400 Q 1800 465 2400 168" opacity="0.19"></path>
    <path d="M 0 156 Q 600 335 1200 400 Q 1800 465 2400 156" opacity="0.33"></path>
    <path d="M 0 144 Q 600 335 1200 400 Q 1800 465 2400 144" opacity="0.13"></path>
    <path d="M 0 132 Q 600 335 1200 400 Q 1800 465 2400 132" opacity="0.12"></path>
    <path d="M 0 120 Q 600 335 1200 400 Q 1800 465 2400 120" opacity="0.35"></path>
    <path d="M 0 108 Q 600 335 1200 400 Q 1800 465 2400 108" opacity="0.26"></path>
    <path d="M 0 96 Q 600 335 1200 400 Q 1800 465 2400 96" opacity="0.73"></path>
    <path d="M 0 84 Q 600 335 1200 400 Q 1800 465 2400 84" opacity="0.21"></path>
    <path d="M 0 72 Q 600 335 1200 400 Q 1800 465 2400 72" opacity="0.63"></path>
    <path d="M 0 60 Q 600 335 1200 400 Q 1800 465 2400 60" opacity="0.74"></path>
    <path d="M 0 48 Q 600 335 1200 400 Q 1800 465 2400 48" opacity="0.07"></path>
    <path d="M 0 36 Q 600 335 1200 400 Q 1800 465 2400 36" opacity="0.54"></path>
    <path d="M 0 24 Q 600 335 1200 400 Q 1800 465 2400 24" opacity="0.76"></path>
  </g>
</svg>