<svg xmlns="http://www.w3.org/2000/svg" version="1.1" xmlns:xlink="http://www.w3.org/1999/xlink" xmlns:svgjs="http://svgjs.dev/svgjs" viewBox="0 0 800 800"><defs><linearGradient x1="50%" y1="0%" x2="50%" y2="100%" id="ccchaos-grad"><stop stop-color="hsl(206, 75%, 49%)" stop-opacity="1" offset="0%"></stop><stop stop-color="hsl(331, 90%, 56%)" stop-opacity="1" offset="100%"></stop></linearGradient></defs><g stroke-width="2" stroke="url(#ccchaos-grad)" fill="none" stroke-linecap="round"><path d="M383.62 126.95C393.11 124.77 402.64 122.29 412.22 119.74 421.82 116.84 431.49 114.43 441.21 112.74 450.99 111.52 460.86 111.46 470.83 112.66 480.89 114.78 491.07 118.25 501.38 123 511.8 128.58 522.36 135.2 533.02 142.67 543.79 150.51 554.64 158.84 565.52 167.43 576.41 175.88 587.24 184.31 597.89 192.59 608.39 200.38 618.56 207.9 628.25 215.13 637.54 221.77 646.14 228.17 653.87 234.39 660.95 240.12 666.96 245.8 671.78 251.51 675.75 256.91 678.42 262.49 679.74 268.31 680.24 273.98 679.48 280.01 677.53 286.41 675.09 292.77 671.78 299.57 667.79 306.79 663.93 314.01 659.88 321.67 655.88 329.75 652.74 337.83 650.13 346.32 648.28 355.19 647.81 364.07 648.34 373.32 649.92 382.94 652.95 392.56 656.79 402.33 661.2 412.25 666.49 422.2 671.85 432.33 676.98 442.64 682.19 453.03 686.64 463.65 690.11 474.5 692.96 485.47 694.48 496.7 694.57 508.16 693.69 519.72 691.29 531.48 687.45 543.35 682.62 555.18 676.47 566.97 669.17 578.53 661.14 589.77 652.21 600.5 642.57 610.5 632.55 619.74 622.07 627.89 611.32 634.72 600.49 640.44 589.57 644.61 578.67 647.13 567.9 648.51 557.24 648.36 546.75 646.82 536.47 644.74 526.37 641.85 516.45 638.56 506.74 635.89 497.18 633.7 487.74 632.45 478.47 633.02 469.26 635.22 460.1 639.25 451.04 645.51 441.97 653.49 432.87 662.88 423.81 673.53 414.69 684.53 405.5 695.14 396.32 704.97 387.05 712.97 377.71 718.42 368.36 721.31 359.15 720.91 350.12 717.34 341.08 711.31 332.23 702.85 323.58 692.59 314.96 681.5 306.56 669.93 298.43 658.57 290.33 648.2 282.51 639.01 275 631.31 267.53 625.54 260.37 621.42 253.56 618.8 246.77 617.9 240.31 617.98 234.2 618.67 225.18 620.85 208.59 623.04 200.93 621.5 195.77 619.35 190.82 615.87 186.08 611.09 181.12 605.48 176.33 598.67 171.7 590.84 166.82 582.35 162.07 573.06 157.48 563.18 152.65 552.9 147.99 542.24 143.53 531.37 138.89 520.32 134.5 509.21 130.42 498.13 126.27 487.02 122.5 476.01 119.17 465.18 115.91 454.36 113.17 443.73 111.03 433.34 109.07 422.95 107.78 412.79 107.21 402.88 106.91 392.96 107.37 383.51 108.56 374.51 110.02 365.48 112.18 356.88 114.99 348.7 118 340.46 121.6 332.59 125.72 325.07 129.94 317.44 134.6 310.09 139.65 302.98 144.66 295.67 149.98 288.49 155.56 281.41 160.99 274 166.62 266.57 172.41 259.06 178 251.13 183.72 243.03 189.57 234.74 195.19 226.02 200.94 217.11 206.82 208.06 212.5 198.73 218.34 189.39 224.36 180.18 230.21 171.02 236.29 162.25 242.59 154.06 248.79 146.35 255.25 139.52 261.99 133.74 268.66 128.77 275.63 125 282.9 122.51 290.14 120.82 297.68 120.27 305.53 120.75 313.36 121.58 321.49 123.03 329.9 124.87 338.3 126.31 346.99 127.64 355.95 128.66 364.9 128.67 374.12 128.11 383.61 126.95" stroke-dasharray="8 2" transform="rotate(0, 400, 400)" opacity="0.58"></path><path d="M387.47 138.33C396.67 136.19 405.96 133.76 415.32 131.25 424.7 128.39 434.17 125.95 443.73 124.16 453.33 122.75 463.04 122.41 472.84 123.24 482.72 124.9 492.72 127.86 502.82 132.04 513 137.05 523.29 143.12 533.63 150.07 544.03 157.48 554.44 165.46 564.81 173.82 575.13 182.17 585.32 190.61 595.25 199 604.97 207.04 614.3 214.88 623.08 222.48 631.44 229.57 639.09 236.43 645.86 243.09 652 249.27 657.12 255.34 661.1 261.37 664.32 267.05 666.34 272.83 667.15 278.75 667.26 284.47 666.26 290.45 664.22 296.73 661.81 302.91 658.67 309.46 654.96 316.4 651.44 323.29 647.79 330.59 644.23 338.31 641.48 346 639.24 354.12 637.67 362.64 637.37 371.15 637.96 380.08 639.48 389.42 642.33 398.77 645.88 408.32 649.95 418.06 654.85 427.83 659.81 437.82 664.59 448.02 669.49 458.26 673.74 468.75 677.13 479.44 680.03 490.19 681.74 501.15 682.18 512.26 681.77 523.38 679.99 534.57 676.86 545.73 672.84 556.74 667.57 567.54 661.18 577.95 654.07 587.94 646.05 597.28 637.29 605.76 628.1 613.48 618.4 620.06 608.32 625.35 598.11 629.63 587.7 632.49 577.23 633.89 566.81 634.4 556.41 633.66 546.12 631.83 535.98 629.75 525.96 627.17 516.09 624.45 506.4 622.53 496.84 621.24 487.4 620.97 478.12 622.46 468.91 625.48 459.79 630.17 450.75 636.83 441.75 644.97 432.76 654.28 423.83 664.6 414.88 675.11 405.91 685.15 396.96 694.4 387.97 701.91 378.95 707.05 369.94 709.85 361.1 709.61 352.47 706.44 343.84 701 335.41 693.25 327.22 683.73 319.03 673.31 311.09 662.28 303.42 651.25 295.76 640.95 288.39 631.55 281.32 623.38 274.26 616.88 267.51 611.86 261.08 608.23 254.64 606.25 248.52 605.31 242.71 605.1 234.08 606.26 218.08 608.14 210.61 607.33 205.56 606.01 200.69 603.57 196 599.98 191.1 595.7 186.34 590.3 181.73 583.89 176.87 576.87 172.15 569 167.57 560.43 162.77 551.46 158.13 541.98 153.69 532.16 149.08 522.12 144.73 511.89 140.68 501.57 136.57 491.17 132.84 480.78 129.54 470.47 126.31 460.15 123.6 449.95 121.47 439.92 119.52 429.9 118.23 420.05 117.64 410.41 117.33 400.77 117.75 391.55 118.89 382.73 120.3 373.89 122.39 365.42 125.12 357.31 128.06 349.14 131.57 341.28 135.6 333.69 139.73 325.98 144.31 318.47 149.26 311.13 154.21 303.57 159.46 296.09 164.96 288.63 170.35 280.86 175.94 273.03 181.7 265.09 187.27 256.79 192.97 248.33 198.8 239.71 204.41 230.77 210.15 221.72 216 212.61 221.65 203.35 227.45 194.2 233.41 185.29 239.19 176.55 245.17 168.3 251.35 160.72 257.41 153.68 263.71 147.56 270.25 142.49 276.71 138.2 283.44 135.07 290.45 133.13 297.41 131.89 304.66 131.69 312.2 132.41 319.71 133.37 327.52 134.86 335.61 136.66 343.68 138.03 352.05 139.25 360.69 140.15 369.33 140.1 378.25 139.49 387.46 138.33" stroke-dasharray="3 4" transform="rotate(4.04, 400, 400)" opacity="0.21"></path><path d="M391.94 149.7C400.88 147.61 409.92 145.24 419.04 142.79 428.18 139.97 437.43 137.52 446.76 135.65 456.14 134.09 465.62 133.49 475.2 133.97 484.83 135.2 494.56 137.64 504.36 141.27 514.21 145.69 524.12 151.17 534.03 157.55 543.96 164.46 553.84 172.02 563.61 180.03 573.29 188.16 582.75 196.49 591.9 204.88 600.81 213.03 609.26 221.08 617.13 228.96 624.58 236.43 631.29 243.69 637.15 250.75 642.42 257.38 646.7 263.87 649.93 270.28 652.5 276.33 653.97 282.39 654.35 288.53 654.16 294.44 652.98 300.52 650.92 306.82 648.59 312.98 645.65 319.45 642.24 326.23 639.07 332.95 635.82 340.04 632.67 347.5 630.3 354.93 628.38 362.77 627.08 371.01 626.94 379.23 627.58 387.87 629.04 396.95 631.71 406.02 635 415.32 638.74 424.82 643.25 434.35 647.83 444.1 652.26 454.04 656.86 464.01 660.88 474.19 664.17 484.52 667.06 494.86 668.91 505.33 669.63 515.84 669.63 526.29 668.38 536.68 665.89 546.91 662.61 556.9 658.15 566.54 652.62 575.67 646.41 584.31 639.3 592.22 631.42 599.2 623.09 605.45 614.19 610.59 604.86 614.49 595.33 617.55 585.54 619.34 575.59 619.88 565.63 619.8 555.62 618.72 545.64 616.84 535.75 614.98 525.93 612.86 516.23 610.83 506.65 609.72 497.18 609.34 487.84 610 478.61 612.34 469.48 616.1 460.43 621.34 451.48 628.31 442.58 636.53 433.73 645.69 424.93 655.65 416.16 665.66 407.41 675.12 398.68 683.81 389.96 690.84 381.25 695.67 372.55 698.38 364.06 698.29 355.8 695.51 347.53 690.62 339.5 683.55 331.71 674.76 323.92 665.04 316.39 654.59 309.13 643.96 301.87 633.83 294.88 624.35 288.2 615.85 281.5 608.77 275.09 602.97 268.99 598.43 259.93 594.45 243.14 592.29 235.34 592.6 227.6 593.17 212.9 591.01 205.84 587.48 200.98 584.29 196.24 580.09 191.64 574.94 186.81 569.25 182.1 562.72 177.53 555.45 172.76 547.77 168.15 539.52 163.73 530.82 159.17 521.88 154.86 512.63 150.85 503.19 146.8 493.63 143.11 483.97 139.86 474.3 136.68 464.59 134 454.92 131.89 445.34 129.97 435.75 128.68 426.27 128.08 416.93 127.75 407.58 128.14 398.58 129.22 389.92 130.57 381.24 132.58 372.86 135.22 364.77 138.07 356.61 141.48 348.69 145.41 340.97 149.44 333.13 153.91 325.42 158.77 317.8 163.62 309.99 168.79 302.19 174.22 294.36 179.55 286.28 185.09 278.1 190.79 269.82 196.33 261.25 202.02 252.55 207.82 243.75 213.42 234.74 219.14 225.69 224.98 216.69 230.62 207.66 236.39 198.84 242.31 190.37 248.04 182.17 253.96 174.54 260.05 167.64 266 161.32 272.17 155.92 278.56 151.57 284.86 147.95 291.4 145.42 298.2 143.99 304.93 143.17 311.94 143.27 319.22 144.18 326.46 145.24 333.99 146.74 341.8 148.47 349.58 149.75 357.65 150.86 366.01 151.65 374.35 151.52 382.99 150.87 391.93 149.7" stroke-dasharray="6 5" transform="rotate(8.08, 400, 400)" opacity="0.43"></path><path d="M396.82 161.08C405.49 159.03 414.26 156.73 423.12 154.34 432 151.58 440.98 149.14 450.05 147.21 459.15 145.52 468.35 144.7 477.62 144.85 486.93 145.68 496.31 147.63 505.72 150.7 515.16 154.53 524.61 159.4 534.01 165.19 543.38 171.53 552.65 178.58 561.75 186.16 570.72 193.95 579.42 202.05 587.74 210.3 595.81 218.44 603.39 226.57 610.36 234.61 616.92 242.34 622.75 249.92 627.76 257.32 632.22 264.35 635.76 271.25 638.33 278.03 640.32 284.47 641.34 290.88 641.37 297.31 640.96 303.48 639.69 309.76 637.65 316.2 635.45 322.47 632.73 328.97 629.63 335.72 626.81 342.39 623.94 349.37 621.2 356.68 619.18 363.95 617.58 371.58 616.52 379.59 616.51 387.58 617.2 395.97 618.61 404.77 621.1 413.56 624.13 422.57 627.56 431.77 631.71 440.97 635.91 450.38 640 459.93 644.27 469.49 648.07 479.2 651.21 488.98 654.07 498.74 656 508.52 656.94 518.24 657.27 527.84 656.48 537.27 654.57 546.41 651.95 555.25 648.23 563.65 643.51 571.44 638.15 578.73 631.91 585.23 624.9 590.81 617.44 595.72 609.37 599.59 600.83 602.33 592.05 604.4 582.93 605.38 573.59 605.34 564.18 604.91 554.66 603.75 545.1 602.04 535.58 600.55 526.07 599.03 516.63 597.76 507.28 597.49 498 598.01 488.83 599.56 479.74 602.66 470.75 607.05 461.85 612.75 453.03 619.94 444.27 628.15 435.6 637.1 426.97 646.67 418.39 656.16 409.87 665.06 401.36 673.19 392.9 679.76 384.49 684.3 376.08 686.9 367.91 686.95 359.99 684.53 352.07 680.17 344.39 673.76 336.97 665.69 329.53 656.67 322.36 646.83 315.46 636.67 308.55 626.8 301.91 617.37 295.54 608.68 289.16 601.15 283.05 594.71 277.21 589.39 268.52 584 252.3 579.09 244.7 578.4 237.11 578.41 222.59 576.6 215.57 573.93 210.73 571.55 206.01 568.3 201.41 564.19 196.6 559.65 191.91 554.3 187.35 548.22 182.62 541.77 178.04 534.7 173.66 527.12 169.16 519.29 164.9 511.07 160.94 502.56 156.95 493.92 153.33 485.08 150.12 476.12 147 467.11 144.37 458.03 142.29 448.96 140.41 439.87 139.13 430.8 138.52 421.78 138.17 412.77 138.52 404 139.54 395.5 140.83 386.97 142.76 378.66 145.3 370.57 148.05 362.41 151.35 354.41 155.15 346.55 159.07 338.57 163.43 330.66 168.16 322.79 172.92 314.74 177.98 306.68 183.31 298.56 188.57 290.24 194.04 281.82 199.68 273.32 205.18 264.61 210.83 255.83 216.6 247.02 222.19 238.09 227.9 229.21 233.72 220.48 239.35 211.83 245.1 203.48 250.98 195.57 256.7 188.01 262.56 181.07 268.58 174.91 274.47 169.33 280.54 164.67 286.81 161.01 292.98 158.03 299.38 156.07 306 155.1 312.56 154.65 319.36 155 326.42 156.05 333.44 157.18 340.72 158.65 348.27 160.3 355.8 161.47 363.61 162.46 371.7 163.14 379.77 162.94 388.14 162.25 396.81 161.08" stroke-dasharray="9 6" transform="rotate(12.12, 400, 400)" opacity="0.64"></path><path d="M401.86 172.45C410.25 170.46 418.74 168.23 427.31 165.91 435.9 163.22 444.59 160.81 453.34 158.83 462.12 157.04 470.97 156.03 479.87 155.89 488.79 156.34 497.75 157.84 506.7 160.37 515.64 163.62 524.55 167.87 533.37 173.03 542.12 178.76 550.72 185.23 559.1 192.3 567.32 199.65 575.23 207.39 582.73 215.38 589.96 223.37 596.67 231.44 602.78 239.51 608.5 247.37 613.51 255.14 617.73 262.79 621.47 270.14 624.35 277.36 626.35 284.47 627.86 291.29 628.5 298.04 628.28 304.77 627.71 311.25 626.4 317.79 624.44 324.41 622.4 330.87 619.93 337.48 617.15 344.29 614.68 351 612.18 357.96 609.81 365.18 608.13 372.36 606.82 379.85 605.98 387.67 606.1 395.46 606.83 403.61 608.17 412.12 610.49 420.62 613.28 429.3 616.41 438.11 620.21 446.93 624.06 455.89 627.8 464.93 631.76 473.97 635.31 483.06 638.29 492.16 641.07 501.18 643.05 510.14 644.14 518.94 644.74 527.57 644.33 535.93 642.92 543.9 640.89 551.56 637.85 558.69 633.87 565.16 629.31 571.17 623.89 576.39 617.73 580.71 611.12 584.47 603.89 587.28 596.16 589.1 588.15 590.44 579.76 590.88 571.1 590.52 562.32 589.99 553.37 588.95 544.32 587.59 535.26 586.62 526.16 585.79 517.08 585.33 508.05 585.89 499.05 587.26 490.14 589.62 481.29 593.4 472.51 598.32 463.82 604.36 455.19 611.68 446.64 619.82 438.17 628.51 429.74 637.65 421.38 646.62 413.1 654.96 404.84 662.54 396.63 668.67 388.51 672.93 380.39 675.43 372.52 675.6 364.91 673.5 357.3 669.65 349.94 663.87 342.84 656.5 335.72 648.18 328.87 638.99 322.28 629.35 315.67 619.84 309.32 610.55 303.23 601.8 297.11 593.99 291.24 587.05 285.62 581.08 279.95 576.33 274.51 572.51 269.3 569.51 261.45 566.82 246.53 564.18 239.38 563.15 232.12 561.98 217.95 556.59 211.01 551.98 206.22 548.36 201.55 543.99 197.02 538.93 192.33 533.57 187.8 527.58 183.47 521.04 179.03 514.28 174.84 507.07 170.95 499.48 167.04 491.77 163.49 483.76 160.34 475.55 157.3 467.28 154.72 458.85 152.68 450.32 150.83 441.78 149.57 433.17 148.95 424.51 148.59 415.85 148.91 407.34 149.87 399.01 151.09 390.65 152.93 382.44 155.36 374.35 158 366.22 161.18 358.17 164.84 350.19 168.64 342.11 172.86 334.05 177.45 326 182.09 317.8 187.03 309.56 192.25 301.27 197.41 292.82 202.79 284.31 208.36 275.74 213.8 267.06 219.4 258.36 225.12 249.69 230.69 241.02 236.37 232.48 242.16 224.17 247.78 216.03 253.52 208.28 259.37 201.03 265.06 194.17 270.89 187.99 276.85 182.59 282.69 177.76 288.69 173.83 294.87 170.84 300.94 168.46 307.22 167.01 313.7 166.45 320.11 166.31 326.75 166.87 333.62 168.02 340.44 169.17 347.51 170.6 354.84 172.14 362.13 173.2 369.7 174.06 377.53 174.62 385.35 174.35 393.46 173.62 401.85 172.45" stroke-dasharray="7 8" transform="rotate(16.16, 400, 400)" opacity="0.46"></path><path d="M406.8 183.82C414.91 181.89 423.1 179.74 431.35 177.5 439.62 174.89 447.96 172.52 456.36 170.53 464.76 168.66 473.21 167.48 481.68 167.09 490.15 167.2 498.62 168.26 507.05 170.29 515.44 172.97 523.76 176.6 531.94 181.12 540.03 186.21 547.92 192.06 555.55 198.54 563.01 205.37 570.12 212.64 576.8 220.25 583.21 227.96 589.11 235.83 594.4 243.78 599.33 251.62 603.59 259.45 607.1 267.21 610.2 274.76 612.52 282.21 614.04 289.57 615.16 296.69 615.51 303.73 615.11 310.73 614.45 317.51 613.16 324.3 611.32 331.13 609.46 337.79 607.25 344.56 604.8 351.46 602.67 358.25 600.53 365.23 598.52 372.42 597.14 379.55 596.1 386.93 595.47 394.56 595.7 402.18 596.45 410.09 597.73 418.28 599.89 426.47 602.45 434.77 605.3 443.14 608.75 451.5 612.26 459.93 615.67 468.37 619.32 476.79 622.6 485.18 625.41 493.47 628.08 501.68 630.05 509.73 631.25 517.52 632.05 525.13 631.96 532.39 630.97 539.19 629.45 545.69 627.01 551.62 623.71 556.89 619.88 561.74 615.24 565.83 609.88 569.1 604.1 571.92 597.7 573.92 590.77 575.09 583.56 575.95 575.93 576.11 567.99 575.67 559.89 575.25 551.57 574.51 543.11 573.65 534.59 573.3 525.98 573.2 517.35 573.56 508.72 574.94 500.1 577.1 491.53 580.18 482.99 584.53 474.5 589.88 466.09 596.17 457.72 603.53 449.42 611.53 441.2 619.9 433.02 628.6 424.91 637.04 416.89 644.82 408.88 651.88 400.95 657.57 393.11 661.55 385.26 663.95 377.68 664.23 370.37 662.44 363.04 659.05 355.97 653.87 349.17 647.19 342.34 639.57 335.76 631.04 329.44 621.98 323.09 612.89 316.98 603.86 311.13 595.17 305.22 587.21 299.55 579.93 294.11 573.45 288.61 568.02 283.31 563.41 278.22 559.57 270.52 555.56 255.79 550.72 248.69 549 241.47 547.52 227.34 542.62 220.41 538.74 215.66 535.78 211.02 532.16 206.53 527.91 201.89 523.44 197.42 518.37 193.15 512.75 188.79 506.95 184.69 500.65 180.87 493.94 177.05 487.11 173.59 479.93 170.52 472.46 167.55 464.93 165.05 457.16 163.05 449.21 161.25 441.23 160.01 433.1 159.39 424.83 159.02 416.56 159.29 408.35 160.19 400.22 161.34 392.08 163.09 384 165.4 375.97 167.92 367.91 170.96 359.87 174.48 351.84 178.13 343.75 182.2 335.63 186.65 327.49 191.14 319.26 195.95 310.98 201.03 302.65 206.08 294.24 211.35 285.78 216.81 277.33 222.18 268.83 227.7 260.38 233.36 252.04 238.88 243.77 244.53 235.72 250.27 227.96 255.87 220.46 261.58 213.39 267.4 206.88 273.07 200.79 278.87 195.38 284.79 190.75 290.58 186.66 296.53 183.42 302.62 181.06 308.62 179.23 314.79 178.24 321.15 178.03 327.44 178.14 333.93 178.86 340.63 180.06 347.28 181.21 354.16 182.56 361.28 183.99 368.36 184.92 375.7 185.65 383.28 186.09 390.85 185.75 398.69 184.99 406.79 183.83" stroke-dasharray="3 9" transform="rotate(20.200000000000003, 400, 400)" opacity="0.13"></path><path d="M411.41 195.2C419.21 193.33 427.07 191.26 434.98 189.11 442.9 186.59 450.86 184.27 458.85 182.29 466.84 180.37 474.85 179.06 482.84 178.45 490.81 178.25 498.75 178.92 506.6 180.47 514.4 182.61 522.09 185.64 529.59 189.52 537 193.96 544.17 199.15 551.04 204.98 557.74 211.21 564.07 217.94 569.95 225.06 575.59 232.35 580.71 239.89 585.25 247.58 589.47 255.26 593.05 262.99 595.95 270.72 598.5 278.32 600.34 285.87 601.46 293.36 602.28 300.67 602.42 307.91 601.91 315.1 601.21 322.11 599.99 329.11 598.3 336.1 596.65 342.96 594.72 349.87 592.59 356.85 590.78 363.74 588.99 370.74 587.31 377.89 586.22 384.99 585.42 392.26 584.98 399.71 585.31 407.15 586.08 414.8 587.3 422.65 589.3 430.5 591.64 438.38 594.22 446.25 597.35 454.12 600.52 461.96 603.62 469.73 606.95 477.47 609.97 485.09 612.59 492.54 615.12 499.89 617.05 507 618.31 513.79 619.33 523.49 616.73 540.15 613.07 546.78 607.94 552.24 593.57 559.13 584.63 560.63 578.21 561.25 571.36 561.35 564.15 561.05 556.78 560.91 549.14 560.63 541.31 560.37 533.39 560.69 525.35 561.35 517.23 562.51 509.09 564.64 500.92 567.51 492.76 571.22 484.61 576.04 476.48 581.7 468.4 588.14 460.36 595.46 452.36 603.25 444.44 611.27 436.55 619.49 428.72 627.4 420.98 634.64 413.26 641.18 405.61 646.47 398.05 650.18 390.49 652.47 383.19 652.85 376.15 651.34 369.1 648.39 362.3 643.78 355.75 637.76 349.17 630.82 342.84 622.97 336.75 614.51 330.63 605.92 324.73 597.24 319.07 588.73 313.35 580.75 307.84 573.28 302.54 566.43 297.17 560.47 291.98 555.21 286.98 550.64 279.4 545.4 264.81 538.27 257.75 535.68 250.56 533.6 236.5 528.49 229.61 524.98 222.6 520.85 209.1 509.66 202.7 502.62 198.45 497.61 194.43 492.12 190.71 486.18 187 480.15 183.63 473.72 180.65 466.95 177.78 460.12 175.35 453 173.41 445.61 171.66 438.21 170.45 430.57 169.83 422.71 169.45 414.86 169.68 406.99 170.51 399.11 171.59 391.24 173.24 383.35 175.43 375.45 177.82 367.53 180.72 359.59 184.07 351.63 187.57 343.62 191.48 335.57 195.75 327.48 200.08 319.35 204.73 311.17 209.65 302.98 214.57 294.75 219.71 286.53 225.04 278.35 230.31 270.21 235.74 262.17 241.3 254.31 246.76 246.6 252.34 239.15 258.03 232.07 263.59 225.29 269.26 218.98 275.02 213.25 280.66 207.94 286.42 203.32 292.29 199.44 298.04 196.06 303.92 193.47 309.94 191.69 315.87 190.34 321.95 189.74 328.2 189.82 334.37 190.14 340.73 190.95 347.28 192.18 353.77 193.28 360.48 194.54 367.39 195.83 374.27 196.63 381.38 197.23 388.71 197.55 396.03 197.14 403.59 196.36 411.4 195.2" stroke-dasharray="3 11" transform="rotate(24.24, 400, 400)" opacity="0.29"></path><path d="M415.44 206.57C422.92 204.77 430.43 202.79 437.97 200.73 445.5 198.31 453.06 196.06 460.6 194.1 468.15 192.16 475.67 190.75 483.13 189.96 490.58 189.5 497.94 189.82 505.19 190.93 512.38 192.56 519.41 195.02 526.23 198.28 532.94 202.05 539.39 206.57 545.52 211.73 551.48 217.3 557.07 223.41 562.2 229.94 567.12 236.72 571.53 243.79 575.39 251.09 578.97 258.46 581.97 265.95 584.33 273.5 586.41 281 587.87 288.5 588.69 295.97 589.27 303.33 589.27 310.65 588.71 317.92 588.04 325.07 586.92 332.18 585.41 339.27 583.99 346.25 582.33 353.25 580.52 360.26 579.03 367.21 577.56 374.21 576.19 381.29 575.37 388.33 574.79 395.47 574.51 402.72 574.92 409.95 575.7 417.32 576.86 424.8 578.71 432.28 580.84 439.71 583.17 447.05 585.99 454.38 588.85 461.61 591.64 468.69 594.66 475.72 597.42 482.57 599.82 489.17 603.12 498.78 606.53 515.99 606.34 523.33 604.89 529.81 597.77 539.49 592.21 542.6 585.52 544.85 569.02 546.77 559.51 546.9 552.87 547.18 545.94 547.45 538.77 547.85 531.51 548.86 524.08 550.26 516.53 552.18 508.94 554.99 501.28 558.48 493.59 562.7 485.89 567.88 478.19 573.76 470.51 580.25 462.84 587.45 455.2 594.97 447.63 602.61 440.06 610.34 432.56 617.71 425.13 624.42 417.71 630.47 410.35 635.35 403.09 638.8 395.82 640.99 388.8 641.44 382.02 640.2 375.24 637.66 368.69 633.59 362.38 628.2 356.04 621.94 349.93 614.76 344.04 606.94 338.12 598.89 332.41 590.64 326.9 582.42 321.34 574.55 315.97 567.02 310.78 559.97 305.52 553.62 300.43 547.85 295.5 542.67 288.02 536.34 273.55 526.98 266.52 523.42 259.38 520.57 245.41 514.69 238.57 511.19 231.66 507.35 218.39 497.36 212.14 491.14 207.99 486.75 204.09 481.89 200.47 476.6 196.88 471.24 193.62 465.47 190.74 459.33 187.97 453.15 185.62 446.62 183.75 439.79 182.06 432.93 180.88 425.79 180.26 418.38 179.88 410.96 180.08 403.46 180.84 395.9 181.84 388.34 183.38 380.72 185.44 373.05 187.7 365.36 190.45 357.62 193.63 349.84 196.96 342.04 200.69 334.19 204.77 326.31 208.93 318.42 213.4 310.51 218.14 302.61 222.9 294.73 227.88 286.9 233.06 279.17 238.2 271.53 243.51 264.05 248.95 256.8 254.32 249.75 259.81 243.02 265.41 236.69 270.91 230.68 276.51 225.17 282.21 220.24 287.8 215.72 293.5 211.86 299.3 208.7 305 205.98 310.81 203.98 316.75 202.7 322.6 201.78 328.59 201.5 334.72 201.81 340.79 202.27 347.01 203.15 353.4 204.35 359.75 205.38 366.27 206.53 372.98 207.67 379.66 208.33 386.53 208.8 393.61 209.01 400.67 208.53 407.95 207.72 415.43 206.58" stroke-dasharray="4 8" transform="rotate(28.28, 400, 400)" opacity="0.46"></path><path d="M418.69 217.95C425.83 216.21 432.98 214.32 440.11 212.36 447.24 210.06 454.36 207.89 461.43 205.97 468.5 204.04 475.51 202.56 482.43 201.62 489.32 200.94 496.1 200.95 502.72 201.67 509.29 202.83 515.66 204.75 521.8 207.42 527.84 210.55 533.59 214.39 539.01 218.87 544.27 223.75 549.15 229.18 553.61 235.07 557.86 241.23 561.63 247.75 564.89 254.54 567.92 261.46 570.41 268.56 572.34 275.78 574.04 283.02 575.19 290.31 575.78 297.62 576.2 304.88 576.12 312.13 575.57 319.35 574.96 326.49 573.98 333.6 572.67 340.68 571.48 347.69 570.1 354.68 568.6 361.66 567.41 368.58 566.24 375.52 565.16 382.48 564.57 389.41 564.19 396.38 564.06 403.39 564.54 410.38 565.33 417.43 566.42 424.52 568.13 431.61 570.06 438.56 572.15 445.36 574.69 452.14 577.24 458.75 579.73 465.14 582.45 471.49 584.94 477.59 587.13 483.4 590.2 491.8 593.64 506.52 593.74 512.64 589.93 521.98 576.76 530.47 570.02 531.66 562.43 532.71 545 534.66 535.41 536.18 528.82 537.88 522.03 539.98 515.09 542.57 508.09 545.97 500.99 549.97 493.81 554.59 486.62 560.02 479.39 566.01 472.16 572.47 464.92 579.47 457.69 586.68 450.49 593.9 443.31 601.14 436.15 607.98 429.06 614.16 421.97 619.73 414.93 624.23 407.97 627.43 401 629.51 394.27 630.03 387.75 629.02 381.23 626.85 374.93 623.29 368.84 618.51 362.73 612.9 356.82 606.4 351.12 599.23 345.38 591.77 339.83 584.01 334.46 576.16 329.04 568.52 323.79 561.08 318.71 553.96 313.55 547.38 308.53 541.26 303.66 535.62 298.7 530.65 293.86 526.14 289.14 522.06 281.94 516.99 267.88 508.71 261.01 505.04 254.04 501.65 240.51 494.04 234 489.52 227.53 484.63 215.54 472.78 210.16 465.8 206.7 460.97 203.57 455.74 200.8 450.14 198.13 444.51 195.88 438.52 194.08 432.19 192.45 425.85 191.31 419.2 190.7 412.24 190.31 405.28 190.47 398.19 191.17 391 192.09 383.81 193.52 376.53 195.45 369.17 197.57 361.82 200.15 354.39 203.15 346.92 206.3 339.45 209.84 331.93 213.72 324.41 217.68 316.9 221.96 309.41 226.5 301.96 231.07 294.58 235.87 287.29 240.87 280.14 245.85 273.12 251.01 266.31 256.3 259.79 261.54 253.48 266.92 247.52 272.4 242 277.8 236.79 283.31 232.08 288.91 227.94 294.43 224.18 300.04 221.03 305.75 218.54 311.38 216.42 317.11 214.94 322.95 214.09 328.71 213.52 334.59 213.5 340.6 213.97 346.55 214.52 352.63 215.41 358.85 216.55 365.04 217.49 371.38 218.5 377.87 219.49 384.34 220.01 390.98 220.35 397.78 220.44 404.57 219.91 411.54 219.08 418.68 217.95" stroke-dasharray="5 3" transform="rotate(32.32, 400, 400)" opacity="0.32"></path><path d="M421.01 229.32C427.79 227.66 434.54 225.87 441.25 224.01 447.96 221.82 454.61 219.76 461.2 217.9 467.77 215.99 474.25 214.47 480.61 213.42 486.94 212.57 493.13 212.32 499.14 212.7 505.08 213.44 510.82 214.87 516.29 216.97 521.68 219.5 526.77 222.68 531.52 226.48 536.14 230.66 540.38 235.38 544.22 240.58 547.88 246.07 551.09 251.94 553.84 258.13 556.4 264.49 558.47 271.08 560.04 277.84 561.44 284.67 562.36 291.61 562.8 298.6 563.12 305.61 563.02 312.64 562.52 319.66 562.01 326.65 561.18 333.62 560.09 340.56 559.14 347.47 558.03 354.34 556.82 361.18 555.91 368 555.02 374.79 554.21 381.55 553.84 388.3 553.63 395.04 553.64 401.76 554.17 408.47 554.95 415.17 555.99 421.84 557.56 428.5 559.3 434.97 561.16 441.23 563.42 447.47 565.69 453.48 567.9 459.23 571.44 467.65 577.34 482.81 579.35 489.42 578.25 506.18 567.33 516.35 561.56 517.82 555.01 519.38 539.69 522.93 531.13 525.43 525.22 527.76 519.08 530.49 512.76 533.67 506.39 537.55 499.87 541.95 493.25 546.86 486.6 552.43 479.89 558.43 473.13 564.77 466.37 571.52 459.58 578.37 452.8 585.14 446.02 591.87 439.26 598.18 432.52 603.86 425.8 608.97 419.1 613.1 412.45 616.05 405.81 618.02 399.36 618.6 393.11 617.8 386.86 615.98 380.8 612.9 374.93 608.69 369.04 603.71 363.33 597.88 357.8 591.37 352.24 584.52 346.84 577.31 341.61 569.91 336.33 562.61 331.19 555.37 326.2 548.32 321.14 541.67 316.2 535.35 311.4 529.41 306.5 524 301.72 518.99 297.05 514.35 289.94 508.34 276.04 498.24 269.25 493.8 262.4 489.78 249.14 481.45 242.79 476.87 236.52 472.08 224.95 460.91 219.77 454.44 214.96 447.59 207.19 432.08 204.4 423.46 202.83 417.59 201.74 411.4 201.14 404.9 200.74 398.4 200.87 391.75 201.5 384.98 202.34 378.22 203.66 371.35 205.46 364.4 207.43 357.47 209.84 350.46 212.65 343.41 215.61 336.38 218.94 329.33 222.6 322.29 226.36 315.3 230.41 308.35 234.73 301.49 239.09 294.72 243.69 288.08 248.49 281.62 253.28 275.32 258.25 269.26 263.37 263.52 268.45 258 273.67 252.85 279 248.14 284.28 243.72 289.66 239.79 295.13 236.41 303.29 232.11 319.96 226.84 328.48 225.83 334.14 225.54 339.89 225.7 345.75 226.28 351.56 226.87 357.49 227.72 363.53 228.78 369.53 229.61 375.67 230.47 381.93 231.29 388.17 231.67 394.56 231.88 401.07 231.87 407.57 231.28 414.22 230.43 421 229.32" stroke-dasharray="4 1" transform="rotate(36.36, 400, 400)" opacity="0.67"></path><path d="M422.27 240.7C428.67 239.11 435.01 237.42 441.28 235.67 447.55 233.61 453.73 231.65 459.81 229.87 471.94 226.16 483.56 224.07 494.42 223.99 505.06 225.09 514.73 228.69 523.14 234.62 531.09 241.95 537.56 251.26 542.34 262.07 546.54 273.68 549.03 286.22 549.82 299.25 550.34 312.49 549.54 325.91 547.7 339.25 546.43 352.57 544.86 365.8 543.35 378.78 543.16 385.27 543.12 391.71 543.23 398.09 543.81 404.47 544.58 410.78 545.55 417.01 546.99 423.24 548.55 429.23 550.2 434.97 552.21 440.7 554.21 446.16 556.15 451.33 560.6 461.58 564.15 470.55 566.41 478.05 568.41 488.18 561.41 500.97 552.39 504.8 545 508.01 536.05 511.43 525.89 515.62 515.29 521.97 503.81 529.88 491.76 539.45 479.57 551.12 467.01 563.75 454.34 576.32 448 582.54 441.65 588.34 435.3 593.52 428.96 598.19 422.62 601.96 416.31 604.68 410 606.54 403.86 607.15 397.89 606.55 391.91 605.05 386.1 602.4 380.45 598.73 369.1 589.39 358.35 577.25 348.2 563.6 337.86 549.93 328 536.46 318.62 523.91 308.93 513.01 299.6 503.35 290.68 494.78 281.4 487.75 272.47 481.18 264.01 474.64 255.28 468.81 247.1 462.35 239.7 455 232.31 447.77 225.92 439.37 220.79 429.75 217.36 422.35 212.69 406.01 211.57 397.08 211.18 391.03 211.27 384.84 211.84 378.54 212.59 372.24 213.81 365.85 215.46 359.38 219.27 346.51 224.68 333.45 231.44 320.5 238.58 307.81 246.83 295.49 255.92 283.94 265.08 273.04 274.92 263.32 285.23 255.21 295.4 248.15 306 242.99 316.91 239.94 327.63 237.8 338.71 237.47 350.11 238.7 361.37 239.75 373.03 241.37 385.06 243.07 391.06 243.3 397.16 243.39 403.36 243.28 409.56 242.64 415.86 241.78 422.26 240.7" stroke-dasharray="4 8" transform="rotate(40.400000000000006, 400, 400)" opacity="0.61"></path><path d="M422.42 252.07C434.42 248.65 446.08 245.1 457.25 241.88 468.37 238.28 478.9 236.06 488.61 235.57 498.12 235.98 506.65 238.61 513.96 243.35 520.89 249.32 526.45 257.21 530.49 266.59 534.1 276.8 536.23 288.06 536.9 299.94 537.45 312.15 536.91 324.67 535.5 337.22 534.68 349.83 533.6 362.36 532.56 374.64 532.89 386.92 533.72 398.95 535.11 410.52 538.11 422.09 541.33 432.61 544.47 441.97 548.39 451.25 551.51 459.28 553.53 465.98 555.52 475.21 550.11 487.98 542.56 492.84 536.31 496.95 528.59 501.45 519.68 506.76 510.37 513.97 500.12 522.5 489.23 532.32 478.18 543.76 466.67 555.76 454.94 567.44 443.18 578.63 431.27 587.63 419.35 593.3 407.43 596 396.05 594.3 385.24 588.64 374.37 580.49 363.99 569.65 354.12 557.18 344.1 544.4 334.47 531.45 325.27 519.01 315.81 507.78 306.68 497.48 297.93 488.14 288.89 480.12 280.2 472.63 271.99 465.36 263.59 458.83 255.74 451.97 248.67 444.53 241.65 437.3 235.59 429.17 230.74 420.05 226.31 410.94 223.32 400.76 222.01 389.55 221.4 378.34 222.61 366.67 225.47 354.8 228.96 343.01 233.96 331.16 240.24 319.54 246.9 308.21 254.64 297.37 263.21 287.39 271.9 278.04 281.26 269.89 291.11 263.29 300.89 257.58 311.1 253.58 321.61 251.43 331.99 249.93 342.7 249.93 353.67 251.2 364.54 252.12 375.74 253.46 387.21 254.81 398.64 254.59 410.41 253.7 422.41 252.07" stroke-dasharray="2 1" transform="rotate(44.44, 400, 400)" opacity="0.26"></path><path d="M421.44 263.45C432.61 260.23 443.36 256.93 453.55 253.93 463.68 250.48 473.16 248.21 481.8 247.39 490.27 247.25 497.76 249.04 504.11 252.7 510.16 257.41 514.96 263.9 518.41 271.85 521.57 280.6 523.45 290.46 524.1 301.04 524.75 312.02 524.49 323.43 523.5 334.96 523.11 346.63 522.48 358.28 521.85 369.69 522.42 381.15 523.35 392.31 524.68 402.99 527.38 413.67 530.19 423.31 532.88 431.84 536.28 440.32 538.98 447.66 540.74 453.85 542.63 462.61 538.44 476.1 532.13 482.13 526.89 487.12 520.29 492.58 512.53 498.82 504.42 506.66 495.36 515.57 485.61 525.41 475.69 536.45 465.25 547.73 454.47 558.48 443.66 568.65 432.59 576.79 421.42 581.93 410.24 584.51 399.47 583.22 389.16 578.42 378.8 571.39 368.83 561.82 359.29 550.59 349.62 538.84 340.28 526.62 331.31 514.57 322.13 503.32 313.26 492.71 304.74 482.87 296.01 474.1 287.63 465.85 279.73 457.95 271.71 450.73 264.24 443.41 257.53 435.77 250.91 428.39 245.21 420.38 240.67 411.64 236.51 402.94 233.7 393.4 232.45 383.04 231.83 372.68 232.89 362.02 235.48 351.29 238.65 340.65 243.24 330.08 249.02 319.86 255.18 309.93 262.37 300.6 270.38 292.18 278.54 284.31 287.37 277.62 296.69 272.39 305.99 267.84 315.73 264.82 325.75 263.39 335.71 262.35 345.96 262.54 356.43 263.74 366.84 264.48 377.51 265.51 388.36 266.51 399.2 266.07 410.26 265.06 421.44 263.45" stroke-dasharray="2 3" transform="rotate(48.48, 400, 400)" opacity="0.91"></path><path d="M419.38 274.82C429.71 271.82 439.54 268.78 448.77 266.01 457.95 262.77 466.44 260.5 474.1 259.46 481.61 258.89 488.2 259.97 493.72 262.69 499.02 266.25 503.2 271.44 506.21 278.01 509.04 285.31 510.77 293.72 511.47 302.92 512.26 312.54 512.29 322.68 511.72 333.05 511.71 343.59 511.49 354.2 511.22 364.63 511.98 375.13 512.98 385.37 514.24 395.17 516.66 404.97 519.09 413.82 521.36 421.68 524.27 429.52 526.57 436.39 528.05 442.31 529.75 450.94 526.46 465.58 521.19 472.78 516.82 478.54 511.2 484.8 504.5 491.74 497.49 499.97 489.55 509.01 480.88 518.67 472.07 529.16 462.67 539.65 452.85 549.45 443 558.62 432.81 565.92 422.41 570.56 412.01 573.01 401.89 572.08 392.12 568.07 382.31 562.09 372.81 553.76 363.64 543.78 354.38 533.15 345.39 521.84 336.72 510.42 327.9 499.46 319.35 488.86 311.14 478.82 302.79 469.59 294.78 460.83 287.25 452.43 279.66 444.65 272.61 436.9 266.3 429.05 260.11 421.48 254.8 413.52 250.56 405.09 246.7 396.71 244.07 387.74 242.88 378.19 242.27 368.64 243.19 358.99 245.51 349.41 248.36 339.92 252.51 330.65 257.79 321.83 263.43 313.27 270.05 305.38 277.45 298.42 285.03 291.91 293.27 286.53 301.99 282.46 310.75 278.89 319.93 276.65 329.4 275.72 338.83 274.99 348.55 275.25 358.45 276.29 368.31 276.8 378.38 277.5 388.56 278.16 398.74 277.52 409.05 276.41 419.38 274.82" stroke-dasharray="2 4" transform="rotate(52.52, 400, 400)" opacity="0.44"></path><path d="M416.35 286.19C425.82 283.42 434.76 280.64 443.07 278.11 451.33 275.1 458.91 272.91 465.68 271.74 475.24 271.11 489.49 277.87 494.02 285.17 496.61 291.08 498.28 298.07 499.09 305.87 500.04 314.08 500.36 322.87 500.17 331.99 500.5 341.29 500.62 350.75 500.66 360.14 501.58 369.59 502.62 378.88 503.8 387.83 505.95 396.77 508.04 404.92 509.92 412.24 512.38 419.58 514.28 426.14 515.48 431.97 516.94 440.67 514.26 456.61 509.84 464.86 506.2 471.23 501.43 478.06 495.66 485.43 489.65 493.81 482.74 502.75 475.1 512.04 467.33 521.86 458.94 531.48 450.08 540.32 441.18 548.53 431.88 555.03 422.28 559.18 412.68 561.5 403.25 560.89 394.07 557.58 384.87 552.59 375.87 545.44 367.15 536.71 358.36 527.26 349.79 516.99 341.5 506.4 333.11 496 324.96 485.72 317.14 475.79 309.23 466.42 301.66 457.41 294.56 448.76 287.45 440.6 280.87 432.56 274.99 424.58 269.26 416.85 264.35 408.93 260.44 400.79 256.87 392.7 254.44 384.26 253.32 375.48 252.71 366.7 253.49 358.01 255.55 349.56 258.08 341.17 261.81 333.14 266.57 325.65 271.68 318.37 277.7 311.8 284.47 306.14 291.43 300.82 299.02 296.54 307.09 293.42 315.23 290.62 323.78 288.94 332.61 288.35 341.45 287.77 350.54 287.98 359.79 288.8 369.03 289.04 378.43 289.43 387.89 289.76 397.35 288.94 406.88 287.75 416.35 286.19" stroke-dasharray="0 7" transform="rotate(56.56, 400, 400)" opacity="0.54"></path><path d="M412.5 297.57C421.1 295.01 429.16 292.51 436.6 290.23 444.01 287.48 450.74 285.42 456.73 284.21 465.19 283.17 477.83 287.75 481.93 293.4 484.37 298.04 486.03 303.69 486.97 310.16 488.09 316.97 488.68 324.41 488.84 332.25 489.46 340.27 489.88 348.53 490.18 356.85 491.2 365.22 492.27 373.55 493.37 381.67 495.26 389.79 497.03 397.31 498.56 404.19 500.59 411.11 502.13 417.46 503.05 423.31 504.11 429.31 504.33 434.99 503.64 440.45 502.83 446.32 501 452.24 498.17 458.32 495.13 465.09 491.09 472.24 486.14 479.79 481 488.08 475.03 496.71 468.34 505.46 461.54 514.52 454.12 523.22 446.19 531.11 438.22 538.38 429.8 544.12 421.03 547.81 412.26 549.98 403.55 549.63 395.02 546.96 386.47 542.87 378.05 536.84 369.84 529.33 361.6 521.1 353.52 511.97 345.69 502.36 337.8 492.75 330.13 483.05 322.77 473.52 315.37 464.33 308.31 455.38 301.69 446.72 295.1 438.43 289.03 430.3 283.62 422.33 278.36 414.55 273.87 406.76 270.3 398.92 267.03 391.14 264.8 383.21 263.76 375.17 263.15 367.12 263.81 359.35 265.61 351.95 267.83 344.59 271.13 337.69 275.38 331.4 279.95 325.25 285.36 319.83 291.47 315.27 297.77 310.94 304.68 307.54 312.04 305.14 319.5 302.9 327.36 301.59 335.49 301.16 343.65 300.62 352.05 300.69 360.58 301.24 369.13 301.2 377.8 301.27 386.49 301.3 395.19 300.32 403.9 299.07 412.5 297.57" stroke-dasharray="5 6" transform="rotate(60.599999999999994, 400, 400)" opacity="0.55"></path><path d="M408.02 308.94C415.76 306.61 422.98 304.37 429.6 302.36 439.18 298.96 454.96 295.56 461.02 296.25 466.27 298.44 473.25 308.45 475.18 315.91 476.45 321.43 477.29 327.58 477.74 334.19 478.6 340.95 479.25 348.04 479.76 355.29 480.85 362.6 481.92 369.98 482.93 377.32 484.59 384.65 486.06 391.58 487.29 398.08 488.93 404.62 490.12 410.81 490.78 416.67 491.6 422.69 491.7 428.56 491.03 434.33 490.32 440.46 488.75 446.69 486.32 453.1 483.75 460.02 480.31 467.24 476.07 474.71 471.69 482.68 466.54 490.82 460.72 498.89 454.82 507.09 448.3 514.86 441.26 521.8 434.2 528.17 426.66 533.18 418.72 536.43 410.79 538.44 402.85 538.32 395 536.22 387.15 532.94 379.38 527.95 371.76 521.61 364.12 514.59 356.62 506.65 349.33 498.14 342.01 489.49 334.89 480.61 328.07 471.72 321.25 463.01 314.74 454.41 308.67 446.02 302.64 437.88 297.11 429.89 292.19 422.1 287.43 414.46 283.36 406.9 280.14 399.44 277.19 392.03 275.16 384.62 274.19 377.29 273.6 369.95 274.14 363.02 275.69 356.56 277.61 350.13 280.49 344.23 284.23 338.96 288.25 333.79 293.05 329.31 298.48 325.63 304.11 322.07 310.3 319.32 316.93 317.42 323.66 315.56 330.77 314.45 338.13 314.04 345.55 313.44 353.2 313.31 360.96 313.55 368.74 313.24 376.63 313.01 384.51 312.77 392.41 311.67 400.28 310.38 408.02 308.94" stroke-dasharray="3 1" transform="rotate(64.64, 400, 400)" opacity="0.59"></path><path d="M403.14 320.32C410.03 318.22 416.42 316.25 422.28 314.49 430.76 311.5 444.74 308.23 450.17 308.49 458.3 313.61 465.66 330.06 466.87 338.03 467.91 343.61 468.75 349.59 469.4 355.84 470.53 362.12 471.57 368.59 472.49 375.17 473.93 381.75 475.14 388.12 476.08 394.25 477.38 400.41 478.26 406.4 478.68 412.22 479.25 418.18 479.22 424.11 478.55 430.03 477.87 436.23 476.48 442.56 474.36 449.02 472.17 455.85 469.23 462.89 465.59 470.03 461.85 477.49 457.44 484.97 452.4 492.26 447.31 499.55 441.63 506.37 435.45 512.38 429.24 517.9 422.56 522.23 415.48 525.06 408.39 526.9 401.25 526.96 394.14 525.35 387.03 522.79 379.96 518.76 372.99 513.53 366.03 507.67 359.17 500.93 352.49 493.59 345.81 486.03 339.32 478.12 333.11 470.1 326.91 462.11 321.01 454.13 315.52 446.27 310.1 438.55 305.13 430.95 300.72 423.54 296.47 416.24 292.84 409.06 289.97 402.07 287.33 395.12 285.52 388.28 284.63 381.64 284.27 371.91 288.66 355.07 293.14 348.11 298.72 341.86 313.23 332.82 321.82 330.07 327.78 328.43 334.11 327.38 340.67 326.89 347.3 326.15 354.14 325.79 361.08 325.71 368.06 325.14 375.12 324.64 382.17 324.17 389.23 322.98 396.26 321.68 403.14 320.32" stroke-dasharray="4 6" transform="rotate(68.68, 400, 400)" opacity="0.40"></path><path d="M398.1 331.69C410.2 327.42 420.53 324.13 428.81 322.39 440.14 320.54 453.29 331.59 456.24 343.82 458.85 353 460.82 363.76 462.06 375.47 464.88 387.17 466.53 398.73 466.76 409.96 467.56 421.61 466.15 433.64 462.44 445.9 458.58 459.1 452.19 472.69 443.58 485.52 434.79 498.05 423.94 508.11 411.45 513.68 398.97 516.19 386.15 512.9 373.65 505.05 361.19 495.09 349.06 482.28 337.93 468.34 326.93 454.21 317.1 439.85 309.23 426.16 301.9 412.69 296.91 399.71 295.07 387.78 294.26 375.85 296.83 365.99 302.13 358.44 308.24 350.9 316.73 345.69 326.79 342.84 337.25 339.6 348.96 338.02 361.12 337.68 373.42 335.6 386.01 333.62 398.1 331.69" stroke-dasharray="2 2" transform="rotate(72.72, 400, 400)" opacity="0.87"></path><path d="M393.16 343.07C403.62 339.37 412.6 336.65 419.87 335.25 429.95 333.5 442.52 341.69 445.82 351.48 448.49 358.84 450.47 367.88 451.62 378.16 453.96 388.44 455.13 399.05 455.02 409.68 455.41 420.6 453.97 431.98 450.63 443.47 447.27 455.48 441.8 467.55 434.43 478.63 426.96 489.25 417.66 497.65 406.86 502.31 396.05 504.65 384.85 502.29 373.89 496.16 362.98 488.33 352.35 477.87 342.61 466.16 333.04 454.07 324.52 441.5 317.74 429.35 311.42 417.29 307.12 405.67 305.5 395.12 304.71 384.57 306.79 375.98 311.21 369.46 316.27 362.88 323.41 358.24 331.94 355.49 340.81 352.26 350.82 350.33 361.27 349.41 371.85 347.06 382.7 344.92 393.16 343.07" stroke-dasharray="9 5" transform="rotate(76.76, 400, 400)" opacity="0.67"></path><path d="M388.56 354.44C397.42 351.32 405.11 349.14 411.44 348.11 420.34 346.67 432.17 352.91 435.63 360.73 438.24 366.61 440.15 374.11 441.18 382.99 443.08 391.87 443.85 401.35 443.49 411.03 443.53 420.89 442.05 431.19 439.06 441.46 436.1 451.96 431.43 462.28 425.2 471.53 418.91 480.28 411.07 487.13 401.91 490.93 392.76 493.06 383.23 491.48 373.87 486.86 364.57 480.94 355.51 472.74 347.24 463.28 339.13 453.4 331.95 442.87 326.25 432.52 320.94 422.15 317.32 412.09 315.94 402.94 315.19 393.78 316.82 386.33 320.39 380.62 324.47 374.8 330.29 370.54 337.33 367.77 344.64 364.51 352.96 362.27 361.71 360.88 370.56 358.37 379.69 356.19 388.56 354.44" stroke-dasharray="2 9" transform="rotate(80.80000000000001, 400, 400)" opacity="0.61"></path><path d="M384.53 365.82C395.07 362.43 411.39 359.93 417.12 361.73 422.24 364.94 428.96 378.95 430.75 389.49 432.23 396.96 432.69 405.11 432.15 413.53 431.92 422.03 430.46 430.88 427.79 439.59 425.2 448.34 421.25 456.78 416.07 464.18 410.87 471.14 404.41 476.54 396.88 479.56 389.34 481.43 381.48 480.46 373.77 477.14 366.12 472.9 358.67 466.77 351.9 459.49 345.27 451.82 339.41 443.44 334.79 435.02 330.47 426.54 327.52 418.18 326.38 410.47 325.68 402.76 326.91 396.37 329.7 391.35 332.85 386.22 337.44 382.26 343.04 379.43 348.85 376.21 355.52 373.76 362.6 372.05 369.76 369.53 377.22 367.4 384.53 365.82" stroke-dasharray="9 0" transform="rotate(84.84, 400, 400)" opacity="0.26"></path><path d="M381.28 377.19C392.89 372.59 402.17 371.71 408.21 374.75 414.8 377.36 419.18 384.92 420.31 397.02 422.89 409.11 421.61 423.7 416.93 437.55 412.52 451.21 403.91 462.94 391.99 468.19 380.07 470.55 367.33 464.85 356.67 454.6 346.44 443.2 338.91 429.43 336.82 416.97 335.9 404.51 340.79 395.55 349.15 390.28 358.07 383.84 369.67 379.26 381.28 377.19" stroke-dasharray="3 2" transform="rotate(88.88, 400, 400)" opacity="0.36"></path><path d="M378.97 388.56C391.26 385.13 407.08 392.75 409.87 404.84 411.64 414.01 410.33 424.95 406.53 435.07 402.92 444.92 396.35 453.18 387.51 456.81 378.67 458.84 369.35 455.35 361.64 448.5 354.2 440.94 348.76 431.22 347.25 421.82 346.43 412.4 349.78 405.02 355.71 400.13 361.96 394.54 370.31 390.4 378.97 388.56" stroke-dasharray="10 5" transform="rotate(92.92, 400, 400)" opacity="0.93"></path><path d="M377.71 399.94C389.22 395.18 398.36 399.8 399.44 412.18 401.9 424.55 395.34 440.35 383.66 445.44 371.97 447.73 359.9 437.12 357.69 424.52 356.72 411.91 366.2 402.08 377.71 399.94" stroke-dasharray="5 6" transform="rotate(96.96, 400, 400)" opacity="0.40"></path></g></svg>