<svg xmlns="http://www.w3.org/2000/svg" version="1.1" xmlns:xlink="http://www.w3.org/1999/xlink" xmlns:svgjs="http://svgjs.dev/svgjs" viewBox="0 0 800 800"><defs><linearGradient x1="50%" y1="0%" x2="50%" y2="100%" id="ccchaos-grad"><stop stop-color="hsl(206, 75%, 49%)" stop-opacity="1" offset="0%"></stop><stop stop-color="hsl(331, 90%, 56%)" stop-opacity="1" offset="100%"></stop></linearGradient></defs><g stroke-width="2" stroke="url(#ccchaos-grad)" fill="none" stroke-linecap="round"><path d="M385.23 104.09C394.75 101.3 404.35 100.36 414.01 101.35 423.7 103.78 433.48 107.92 443.34 113.45 453.26 119.63 463.3 126.42 473.45 133.4 483.69 139.86 494.08 145.85 504.6 151.17 515.23 155.32 526 158.69 536.86 161.37 547.8 163.07 558.8 164.47 569.77 165.81 580.71 166.87 591.51 168.4 602.04 170.59 612.35 173.17 622.2 176.75 631.44 181.37 640.17 186.72 648.06 193.14 654.96 200.54 661.08 208.63 666.03 217.54 669.67 227.09 672.43 237.1 673.85 247.54 673.93 258.26 673.29 269.18 671.49 280.23 668.68 291.29 665.64 302.39 662.01 313.43 658.05 324.36 654.59 335.28 651.33 346.07 648.56 356.74 647 367.38 646.35 377.91 646.75 388.32 648.72 398.73 651.83 409.03 655.99 419.18 661.47 429.34 667.46 439.1 673.63 448.42 680.24 457.71 686.37 466.5 691.72 474.74 696.57 482.88 700.11 490.39 702.15 497.22 703.11 503.88 702.37 509.81 699.94 514.99 696.29 520.04 691.07 524.39 684.43 528.13 676.85 531.97 668.15 535.42 658.58 538.71 648.52 542.54 637.93 546.63 627.01 551.24 616.04 556.98 605.02 563.69 594.07 571.57 583.36 580.91 572.87 591.53 562.65 603.35 552.79 616.22 543.21 629.74 533.9 643.42 524.95 656.8 516.2 669.2 507.62 679.92 499.31 688.62 491.06 694.6 482.84 697.45 474.79 697.53 466.66 694.53 458.43 688.79 450.29 681.61 441.97 673.23 433.46 664.63 424.97 657.48 416.26 652.12 407.33 649.37 398.39 650.19 389.22 654.22 379.82 661.2 370.42 670.85 361.04 681.48 351.7 691.88 342.39 701.5 333.15 708.68 324.03 712.66 314.96 713.52 306.04 710.57 297.32 704.11 288.68 694.94 280.27 683.39 272.16 670.37 264.13 656.87 256.42 643.51 249.07 631.03 241.82 620.11 234.94 610.93 228.46 603.63 222.07 598.49 216.07 595.04 210.47 592.94 202.33 592.28 187.78 592.65 181.26 591.51 176.87 590 172.71 587.27 168.77 583.29 164.6 578.56 160.59 572.61 156.73 565.58 152.6 557.9 148.6 549.34 144.75 540.1 140.63 530.46 136.69 520.37 132.95 510 129.04 499.44 125.39 488.76 122.09 478.08 118.74 467.34 115.81 456.69 113.4 446.2 111.09 435.71 109.38 425.39 108.35 415.29 107.57 405.19 107.54 395.53 108.27 386.29 109.29 377.01 111.06 368.11 113.54 359.54 116.28 350.88 119.68 342.46 123.68 334.25 127.84 325.84 132.52 317.52 137.64 309.22 142.79 300.6 148.3 291.88 154.11 282.99 159.81 273.71 165.73 264.2 171.83 254.43 177.73 244.31 183.76 233.99 189.91 223.55 195.8 213.01 201.82 202.59 207.94 192.47 213.82 182.69 219.83 173.58 226 165.36 231.97 157.97 238.13 151.77 244.5 146.91 250.73 143.06 257.2 140.53 263.94 139.27 270.59 138.6 277.54 138.75 284.77 139.44 291.96 139.8 299.46 140.03 307.26 139.82 315.04 138.43 323.13 136.19 331.51 133.06 339.88 128.68 348.55 123.69 357.51 118.43 366.45 112.89 375.69 107.95 385.22 104.09" stroke-dasharray="3 2" transform="rotate(0, 400, 400)" opacity="0.75"></path><path d="M389.56 114.8C398.82 112.02 408.18 110.99 417.63 111.8 427.1 113.99 436.68 117.85 446.36 123.08 456.09 129.01 465.95 135.64 475.92 142.57 485.96 149.12 496.13 155.34 506.4 161.01 516.74 165.62 527.17 169.51 537.64 172.7 548.12 174.89 558.59 176.66 568.96 178.23 579.22 179.34 589.27 180.7 598.97 182.51 608.38 184.51 617.28 187.3 625.52 190.97 633.24 195.22 640.12 200.45 646 206.63 651.18 213.44 655.23 221.1 658.07 229.49 660.15 238.37 661.02 247.79 660.71 257.61 659.81 267.72 657.93 278.07 655.19 288.54 652.34 299.14 649.03 309.76 645.48 320.33 642.46 330.94 639.68 341.45 637.36 351.83 636.19 362.22 635.84 372.47 636.43 382.53 638.46 392.61 641.5 402.5 645.46 412.16 650.63 421.83 656.24 431.02 662.01 439.7 668.21 448.36 674 456.47 679.09 463.99 683.79 471.45 687.33 478.28 689.54 484.47 690.68 493.33 683.62 508.02 675.67 514.24 669.02 518.52 661.25 522.7 652.58 526.95 643.37 531.89 633.55 537.29 623.31 543.36 612.92 550.53 602.36 558.67 591.76 567.89 581.3 578.3 570.95 589.73 560.78 602 550.89 614.88 541.21 627.98 531.76 640.82 522.62 652.98 513.67 663.86 504.89 672.86 496.36 679.8 487.93 684.09 479.56 685.46 471.36 684.4 463.15 680.65 454.89 674.62 446.73 667.55 438.46 659.62 430.08 651.74 421.73 645.39 413.22 640.79 404.55 638.63 395.89 639.76 387.05 643.8 378.06 650.49 369.06 659.62 360.13 669.66 351.28 679.55 342.45 688.85 333.73 696.03 325.16 700.37 316.62 701.97 308.26 700.08 300.13 694.89 292.05 687.08 284.21 676.83 276.67 664.9 269.2 652.18 262.03 639.2 255.22 626.65 248.48 615.19 242.08 605.09 236.07 596.56 230.1 589.92 224.5 584.89 219.26 581.25 211.58 578.53 197.73 576.72 191.43 575.65 185.12 573.71 173.09 564.19 167.25 556.41 163.14 550.33 159.15 543.35 155.3 535.61 151.19 527.46 147.25 518.74 143.52 509.58 139.62 500.21 135.98 490.57 132.68 480.76 129.34 470.88 126.42 460.93 123.99 451 121.68 441.05 119.95 431.16 118.88 421.36 118.06 411.57 117.98 402.09 118.63 392.91 119.58 383.7 121.26 374.75 123.63 366.03 126.27 357.21 129.56 348.53 133.43 339.96 137.48 331.2 142.04 322.43 147.05 313.62 152.1 304.54 157.52 295.32 163.24 285.92 168.88 276.24 174.76 266.36 180.81 256.31 186.69 246.07 192.71 235.76 198.85 225.5 204.76 215.32 210.78 205.43 216.9 196.01 222.79 187.09 228.8 178.95 234.94 171.79 240.88 165.49 246.99 160.37 253.27 156.53 259.41 153.58 265.76 151.8 272.34 151.1 278.82 150.8 285.57 151.12 292.57 151.78 299.52 151.99 306.76 151.94 314.28 151.38 321.76 149.65 329.55 147.1 337.63 143.73 345.69 139.2 354.05 134.16 362.71 128.92 371.35 123.46 380.3 118.6 389.55 114.81" stroke-dasharray="9 7" transform="rotate(4.04, 400, 400)" opacity="0.22"></path><path d="M394.47 125.52C403.46 122.74 412.57 121.64 421.78 122.27 431.01 124.22 440.36 127.78 449.81 132.7 459.3 138.36 468.91 144.77 478.62 151.59 488.37 158.17 498.22 164.56 508.14 170.51 518.08 175.55 528.07 179.93 538.03 183.64 547.96 186.36 557.8 188.59 567.46 190.5 576.98 191.83 586.21 193.22 595.02 194.86 603.52 196.49 611.46 198.71 618.71 201.63 625.46 204.95 631.37 209.13 636.31 214.17 640.62 219.76 643.88 226.18 646.03 233.35 647.53 241 647.96 249.26 647.35 258.01 646.29 267.1 644.4 276.53 641.79 286.18 639.17 296.03 636.2 305.98 633.07 315.95 630.49 326.01 628.15 336.03 626.27 345.94 625.45 355.89 625.37 365.7 626.14 375.31 628.21 384.94 631.16 394.37 634.93 403.53 639.79 412.69 645.03 421.35 650.42 429.49 656.22 437.61 661.66 445.19 666.49 452.2 671.03 459.19 674.53 465.61 676.86 471.49 678.45 480.05 673.19 495.15 666.46 502.19 660.7 507.21 653.85 512.33 646.07 517.73 637.74 523.86 628.74 530.56 619.24 537.99 609.52 546.4 599.52 555.7 589.4 565.9 579.31 576.99 569.23 588.78 559.25 601.06 549.46 613.54 539.82 625.86 530.37 637.55 521.15 648.29 512.1 657.54 503.22 664.8 494.55 670.05 485.99 672.79 477.53 672.86 469.23 670.85 460.95 666.56 452.69 660.39 444.52 653.54 436.3 646.15 428.03 639.01 419.8 633.43 411.47 629.55 403.05 627.94 394.64 629.35 386.12 633.37 377.5 639.78 368.87 648.4 360.35 657.87 351.97 667.25 343.59 676.2 335.35 683.32 327.3 687.95 319.26 690.18 311.43 689.25 303.83 685.25 296.27 678.76 288.97 669.84 281.95 659.1 274.99 647.32 268.32 634.95 261.99 622.62 255.71 610.94 249.75 600.23 244.14 590.75 238.55 582.86 233.29 576.41 228.36 571.3 221.07 566.39 207.77 561.53 201.64 559.89 195.45 558.13 183.52 550.78 177.69 544.7 173.59 539.94 169.6 534.31 165.75 527.9 161.66 521.15 157.73 513.74 154 505.79 150.12 497.63 146.51 489.06 143.22 480.19 139.9 471.23 136.99 462.07 134.56 452.77 132.25 443.45 130.51 434.04 129.41 424.6 128.56 415.15 128.43 405.87 129 396.78 129.87 387.65 131.46 378.67 133.71 369.79 136.24 360.84 139.39 351.93 143.13 343.03 147.05 333.98 151.48 324.87 156.35 315.66 161.29 306.26 166.6 296.72 172.21 287.03 177.78 277.17 183.58 267.19 189.57 257.15 195.42 247.07 201.42 237.07 207.53 227.27 213.45 217.7 219.47 208.58 225.59 200.07 231.5 192.14 237.51 185.08 243.64 179.04 249.58 173.82 255.66 169.74 261.89 166.84 267.97 164.68 274.24 163.53 280.71 163.25 287.06 163.2 293.66 163.57 300.49 164.11 307.25 164.09 314.27 163.73 321.56 162.81 328.81 160.74 336.34 157.9 344.16 154.29 351.95 149.65 360.04 144.57 368.42 139.37 376.79 134.01 385.47 129.25 394.46 125.52" stroke-dasharray="1 5" transform="rotate(8.08, 400, 400)" opacity="0.40"></path><path d="M399.68 136.23C408.41 133.48 417.25 132.3 426.19 132.76 435.15 134.47 444.22 137.73 453.38 142.32 462.58 147.67 471.87 153.83 481.23 160.48 490.61 167.03 500.06 173.51 509.52 179.69 518.99 185.09 528.43 189.92 537.79 194.14 547.09 197.41 556.23 200.15 565.13 202.5 573.84 204.18 582.21 205.77 590.12 207.44 597.71 208.91 604.71 210.79 611 213.19 619.33 217.46 630.74 230.31 633.59 238.93 634.63 245.35 634.71 252.41 633.9 260.01 632.76 267.96 630.92 276.32 628.5 284.99 626.14 293.88 623.52 302.97 620.81 312.16 618.65 321.48 616.75 330.82 615.27 340.1 614.77 349.44 614.94 358.68 615.86 367.75 617.95 376.85 620.82 385.76 624.4 394.42 628.96 403.08 633.85 411.27 638.86 418.98 644.28 426.67 649.37 433.88 653.93 440.6 658.28 447.32 661.72 453.59 664.11 459.43 666.07 468.12 662.4 484.46 656.8 492.64 651.88 498.55 645.91 504.71 639.02 511.27 631.57 518.53 623.41 526.4 614.7 534.95 605.71 544.32 596.38 554.42 586.82 565.18 577.22 576.52 567.54 588.25 557.88 600.11 548.32 611.84 538.85 623.07 529.51 633.39 520.34 642.58 511.3 650.14 502.42 655.71 493.71 659.39 485.11 660.74 476.63 659.71 468.28 656.96 459.99 652.29 451.75 646.14 443.6 639.62 435.45 632.82 427.3 626.42 419.18 621.6 411.03 618.41 402.85 617.31 394.67 618.95 386.44 622.94 378.16 629.06 369.88 637.2 361.75 646.1 353.79 654.97 345.83 663.55 338.05 670.56 330.46 675.4 322.9 678.16 315.54 678.09 308.44 675.19 301.35 669.97 294.53 662.37 287.99 652.88 281.48 642.18 275.26 630.62 269.36 618.75 263.47 607.17 257.89 596.16 252.63 586.06 247.36 577.19 242.39 569.54 237.71 563.11 230.74 556.06 217.87 547.63 211.86 544.9 205.74 542.68 193.87 536.13 188.04 531.13 183.94 527.32 179.96 522.73 176.1 517.4 172.03 511.81 168.11 505.55 164.4 498.7 160.55 491.66 156.96 484.12 153.69 476.18 150.41 468.14 147.53 459.77 145.11 451.14 142.81 442.48 141.07 433.61 139.94 424.56 139.06 415.5 138.88 406.48 139.38 397.52 140.17 388.54 141.65 379.57 143.78 370.62 146.19 361.62 149.2 352.57 152.79 343.47 156.56 334.27 160.84 324.98 165.56 315.57 170.37 306.06 175.54 296.43 181.03 286.72 186.49 276.95 192.2 267.15 198.11 257.42 203.91 247.79 209.86 238.36 215.94 229.27 221.85 220.55 227.86 212.37 233.97 204.91 239.89 198.07 245.92 192.13 252.04 187.2 257.98 183.03 264.05 179.91 270.25 177.83 276.3 176.33 282.52 175.66 288.91 175.68 295.18 175.74 301.66 176.05 308.35 176.4 314.97 176.09 321.82 175.38 328.93 174.08 335.98 171.68 343.29 168.56 350.88 164.75 358.44 160.02 366.28 154.94 374.41 149.79 382.53 144.54 390.95 139.89 399.67 136.23" stroke-dasharray="0 9" transform="rotate(12.12, 400, 400)" opacity="0.60"></path><path d="M404.91 146.94C413.36 144.22 421.91 142.97 430.56 143.27 439.21 144.74 447.96 147.69 456.78 151.94 465.62 156.96 474.52 162.83 483.46 169.26 492.41 175.71 501.38 182.21 510.31 188.53 519.22 194.22 528.05 199.45 536.74 204.13 545.34 207.94 553.73 211.23 561.82 214.08 569.72 216.21 577.22 218.14 584.23 220.01 593.97 222.42 609.48 228.89 614.92 233.54 618.77 239.26 621.43 254.55 620.42 263.96 619.28 270.74 617.55 277.98 615.35 285.59 613.28 293.43 611.02 301.54 608.72 309.83 606.97 318.26 605.47 326.79 604.37 335.34 604.16 343.95 604.56 352.53 605.6 361.01 607.7 369.51 610.48 377.87 613.87 386.05 618.14 394.23 622.69 402.02 627.34 409.4 632.38 416.77 637.13 423.76 641.42 430.37 645.55 437.01 648.89 443.33 651.32 449.36 653.18 455.51 653.94 461.47 653.55 467.34 652.42 473.47 650.12 479.66 646.71 486.02 642.57 492.82 637.43 499.98 631.4 507.57 624.82 515.78 617.52 524.55 609.63 533.91 601.42 543.86 592.8 554.35 583.89 565.25 574.87 576.42 565.7 587.68 556.47 598.75 547.27 609.42 538.09 619.34 528.98 628.14 519.99 635.72 511.09 641.63 502.3 645.6 493.65 647.85 485.11 648.01 476.68 646.09 468.36 642.79 460.11 637.93 451.95 631.93 443.85 625.83 435.8 619.65 427.78 614 419.81 609.91 411.83 607.36 403.87 606.72 395.92 608.57 387.97 612.52 380.01 618.35 372.06 626 364.29 634.36 356.71 642.71 349.14 650.9 341.77 657.76 334.62 662.74 327.47 665.94 320.55 666.61 313.89 664.72 307.23 660.7 300.83 654.38 294.71 646.17 288.6 636.64 282.77 626.05 277.23 614.88 271.69 603.66 266.43 592.67 261.46 582.25 256.45 572.74 251.71 564.18 247.23 556.65 242.67 550.34 238.34 544.99 234.23 540.49 227.96 535.49 215.96 528.12 210.14 524.67 204.1 521.13 192.18 511.36 186.33 504.84 182.28 500.12 178.39 494.76 174.7 488.81 170.9 482.71 167.35 476.08 164.11 468.97 160.87 461.78 158.03 454.17 155.63 446.2 153.36 438.2 151.62 429.87 150.48 421.25 149.57 412.63 149.34 403.93 149.76 395.17 150.47 386.41 151.85 377.57 153.85 368.67 156.12 359.74 158.99 350.71 162.41 341.6 166.02 332.43 170.13 323.16 174.68 313.81 179.33 304.43 184.35 294.98 189.69 285.53 195.02 276.13 200.62 266.8 206.42 257.65 212.14 248.71 218.03 240.09 224.05 231.93 229.92 224.2 235.92 217.1 242.01 210.76 247.93 205.04 253.95 200.2 260.06 196.33 266.01 193.11 272.07 190.82 278.25 189.43 284.28 188.44 290.46 188.1 296.79 188.28 303 188.33 309.4 188.5 315.99 188.57 322.49 187.94 329.21 186.85 336.15 185.18 343.04 182.47 350.17 179.09 357.56 175.11 364.9 170.32 372.52 165.25 380.41 160.17 388.28 155.05 396.45 150.53 404.9 146.95" stroke-dasharray="2 3" transform="rotate(16.16, 400, 400)" opacity="0.90"></path><path d="M409.87 157.66C418.03 154.97 426.27 153.66 434.58 153.81 442.89 155.04 451.28 157.68 459.7 161.58 468.13 166.25 476.59 171.8 485.05 177.96 493.5 184.24 501.92 190.68 510.27 197.07 518.56 202.96 526.73 208.51 534.71 213.6 542.58 217.91 550.19 221.74 557.46 225.12 564.53 227.78 571.18 230.15 577.33 232.36 585.79 235.05 598.93 241.08 603.35 245.01 606.39 249.66 608.09 262.19 606.96 270.05 605.87 275.72 604.3 281.88 602.35 288.45 600.59 295.22 598.69 302.32 596.8 309.67 595.43 317.15 594.32 324.8 593.55 332.56 593.62 340.39 594.21 348.26 595.36 356.11 597.46 363.98 600.13 371.81 603.34 379.54 607.33 387.27 611.55 394.71 615.85 401.86 620.52 409.01 624.93 415.9 628.94 422.53 632.85 429.22 636.07 435.72 638.49 442.08 640.44 448.58 641.42 455.04 641.38 461.53 640.7 468.3 638.95 475.23 636.19 482.41 632.78 490 628.42 497.97 623.21 506.36 617.47 515.23 611.01 524.56 603.95 534.34 596.55 544.48 588.69 554.94 580.49 565.56 572.13 576.18 563.55 586.62 554.84 596.61 546.11 606 537.33 614.45 528.57 621.67 519.86 627.64 511.21 631.99 502.63 634.5 494.15 635.51 485.76 634.67 477.46 632.07 469.25 628.41 461.12 623.52 453.08 617.78 445.11 612.17 437.19 606.66 429.34 601.75 421.52 598.36 413.74 596.41 406.01 596.19 398.29 598.21 390.6 602.09 382.96 607.63 375.31 614.82 367.87 622.64 360.66 630.49 353.44 638.27 346.44 644.92 339.67 649.97 332.9 653.52 326.37 654.83 320.1 653.84 313.82 650.93 307.79 645.85 302.03 638.91 296.26 630.61 290.76 621.1 285.53 610.81 280.27 600.21 275.27 589.53 270.53 579.11 265.74 569.27 261.18 560.11 256.86 551.77 252.43 544.41 248.21 537.92 244.18 532.23 237.99 525.41 226.05 515.1 220.23 510.73 214.19 506.69 202.28 497.12 196.45 491.18 192.43 486.98 188.57 482.23 184.92 476.93 181.16 471.55 177.67 465.63 174.48 459.22 171.29 452.74 168.49 445.81 166.13 438.44 163.89 431.06 162.16 423.28 161.01 415.12 160.08 406.97 159.8 398.65 160.16 390.19 160.78 381.74 162.05 373.16 163.92 364.46 166.05 355.75 168.76 346.93 172 338.01 175.44 329.09 179.37 320.09 183.72 311.05 188.2 302.05 193.04 293.05 198.2 284.13 203.39 275.35 208.84 266.74 214.51 258.4 220.13 250.35 225.92 242.72 231.85 235.61 237.67 228.97 243.62 222.99 249.66 217.79 255.56 213.15 261.56 209.36 267.65 206.44 273.6 204.03 279.65 202.42 285.8 201.56 291.82 200.92 297.96 200.78 304.24 200.97 310.41 200.92 316.74 200.85 323.23 200.6 329.64 199.6 336.25 198.13 343.05 196.09 349.8 193.08 356.76 189.48 363.95 185.36 371.11 180.53 378.51 175.5 386.16 170.53 393.8 165.54 401.69 161.15 409.86 157.66" stroke-dasharray="2 5" transform="rotate(20.200000000000003, 400, 400)" opacity="0.85"></path><path d="M414.29 168.37C422.14 165.72 430.05 164.37 437.98 164.36 445.93 165.37 453.91 167.71 461.89 171.24 469.87 175.55 477.84 180.74 485.77 186.58 493.68 192.64 501.51 198.95 509.22 205.31 516.86 211.32 524.34 217.1 531.59 222.52 538.71 227.28 545.54 231.6 552.01 235.5 561.19 240.16 576.73 247.44 582.81 250.65 590.72 257.43 594.71 271.64 593.57 278.21 591.89 285.53 587.32 302.58 585.05 312.1 584.05 318.65 583.28 325.45 582.83 332.42 583.14 339.45 583.89 346.62 585.14 353.86 587.22 361.12 589.79 368.42 592.8 375.74 596.53 383.06 600.44 390.21 604.4 397.2 608.7 404.19 612.79 411.05 616.52 417.79 620.2 424.59 623.27 431.33 625.64 438.05 627.65 444.92 628.79 451.86 629.03 458.93 628.72 466.25 627.47 473.8 625.29 481.63 622.53 489.78 618.89 498.29 614.45 507.15 609.51 516.33 603.87 525.85 597.62 535.64 591.03 545.58 583.96 555.61 576.5 565.57 568.85 575.31 560.93 584.66 552.82 593.35 544.65 601.32 536.37 608.24 528.05 613.88 519.74 618.34 511.43 621.24 503.17 622.49 494.96 622.45 486.81 620.84 478.73 617.75 470.72 613.91 462.78 609.13 454.93 603.77 447.13 598.7 439.4 593.86 431.75 589.68 424.13 586.94 416.57 585.54 409.08 585.7 401.61 587.86 394.18 591.66 386.83 596.92 379.47 603.65 372.35 610.95 365.46 618.29 358.57 625.65 351.91 632.07 345.49 637.12 339.05 640.92 332.86 642.77 326.92 642.58 320.97 640.67 315.26 636.76 309.8 631.05 304.33 624.01 299.09 615.66 294.11 606.39 289.09 596.6 284.3 586.48 279.74 576.36 275.12 566.51 270.7 557.09 266.48 548.23 262.16 540.13 258.01 532.73 254.02 526.05 249.89 520.18 245.89 514.93 242.02 510.17 235.98 504.16 224.11 493.64 218.26 488.48 212.22 483.32 200.55 471.26 195.04 464.14 191.35 459.2 187.91 453.79 184.78 447.9 181.67 441.98 178.92 435.59 176.6 428.76 174.4 421.92 172.7 414.65 171.54 406.98 170.6 399.31 170.28 391.42 170.56 383.37 171.11 375.32 172.26 367.12 173.99 358.78 175.98 350.46 178.52 342.03 181.57 333.53 184.83 325.06 188.55 316.56 192.7 308.07 196.98 299.67 201.62 291.36 206.59 283.2 211.6 275.24 216.88 267.53 222.38 260.18 227.86 253.15 233.53 246.6 239.34 240.62 245.08 235.08 250.94 230.21 256.91 226.08 262.76 222.44 268.72 219.56 274.77 217.44 280.69 215.7 286.7 214.61 292.82 214.1 298.81 213.67 304.92 213.57 311.14 213.66 317.26 213.41 323.53 213.03 329.93 212.41 336.26 211.03 342.75 209.18 349.42 206.8 356.03 203.53 362.84 199.73 369.84 195.51 376.81 190.67 384 185.71 391.41 180.85 398.8 176.02 406.42 171.77 414.28 168.38" stroke-dasharray="10 11" transform="rotate(24.24, 400, 400)" opacity="0.48"></path><path d="M417.93 179.09C425.45 176.48 432.99 175.09 440.53 174.94 448.07 175.73 455.61 177.77 463.12 180.94 470.61 184.86 478.06 189.67 485.42 195.16 492.76 200.93 499.97 207.04 507.02 213.29 514 219.33 520.78 225.24 527.29 230.9 533.68 236.02 539.75 240.78 545.45 245.16 553.49 250.62 566.84 259.34 571.94 263.03 578.4 269.89 581.34 282.59 580.29 288.19 578.87 294.38 575.2 308.98 573.47 317.27 572.81 322.98 572.37 328.99 572.2 335.24 572.71 341.54 573.61 348.04 574.92 354.71 576.97 361.4 579.44 368.22 582.27 375.17 585.73 382.11 589.34 389.01 592.98 395.87 596.93 402.74 600.7 409.59 604.14 416.43 607.58 423.34 610.49 430.3 612.78 437.34 614.8 444.5 616.05 451.82 616.51 459.32 616.52 467.01 615.68 474.95 614.01 483.16 611.84 491.59 608.85 500.31 605.11 509.27 600.93 518.41 596.07 527.73 590.61 537.13 584.82 546.51 578.53 555.78 571.84 564.77 564.93 573.39 557.72 581.45 550.27 588.72 542.72 595.21 535.01 600.62 527.21 604.76 519.39 607.82 511.52 609.46 503.66 609.63 495.81 608.77 487.99 606.59 480.23 603.22 472.5 599.36 464.83 594.81 457.23 589.9 449.68 585.42 442.19 581.26 434.78 577.78 427.4 575.67 420.08 574.76 412.85 575.26 405.63 577.53 398.48 581.23 391.42 586.21 384.35 592.49 377.53 599.28 370.94 606.12 364.35 613.05 357.99 619.2 351.88 624.19 342.8 629.31 325.81 628.51 317.89 622.56 312.65 616.75 307.64 609.62 302.86 601.45 298.02 592.64 293.4 583.3 288.98 573.72 284.48 564.18 280.16 554.8 276.03 545.76 271.77 537.23 267.67 529.22 263.71 521.79 259.61 515.03 255.62 508.82 251.74 503.11 247.69 498 243.74 493.25 239.87 488.75 233.85 482.68 222.02 470.93 216.27 464.8 212.36 460.72 208.61 456.33 205.06 451.58 201.45 446.85 198.1 441.72 195.03 436.18 192 430.63 189.32 424.67 187.05 418.29 184.9 411.9 183.23 405.1 182.07 397.91 181.13 390.72 180.76 383.32 180.98 375.74 181.44 368.18 182.48 360.47 184.07 352.65 185.91 344.86 188.27 336.99 191.13 329.09 194.19 321.25 197.71 313.43 201.63 305.69 205.69 298.09 210.12 290.63 214.86 283.4 219.67 276.39 224.75 269.71 230.06 263.43 235.37 257.47 240.88 252.02 246.54 247.14 252.15 242.66 257.9 238.82 263.76 235.65 269.54 232.87 275.41 230.74 281.38 229.25 287.25 228 293.21 227.25 299.26 226.93 305.21 226.56 311.26 226.37 317.41 226.26 323.47 225.72 329.66 224.99 335.96 223.97 342.2 222.21 348.58 220 355.1 217.29 361.58 213.79 368.22 209.85 375.03 205.55 381.81 200.74 388.78 195.87 395.92 191.14 403.06 186.47 410.39 182.38 417.92 179.09" stroke-dasharray="8 3" transform="rotate(28.28, 400, 400)" opacity="0.89"></path><path d="M420.59 189.8C427.76 187.26 434.91 185.82 442.03 185.55 449.15 186.13 456.22 187.87 463.22 190.69 470.21 194.22 477.11 198.62 483.89 203.72 490.63 209.15 497.22 214.99 503.61 221.06 509.94 227.02 516.02 232.96 521.82 238.76 527.51 244.14 532.86 249.24 537.84 254.04 544.83 260.24 556.24 270.48 560.5 274.81 565.8 282.3 568.07 294.52 567.17 299.53 566.06 304.93 563.29 317.67 562.07 324.96 561.65 332.66 562.85 349.59 564.72 358.72 566.73 364.89 569.09 371.28 571.74 377.89 574.95 384.5 578.26 391.17 581.59 397.89 585.21 404.63 588.66 411.44 591.82 418.34 595.01 425.3 597.74 432.38 599.94 439.6 601.92 446.92 603.24 454.42 603.87 462.13 604.13 469.96 603.64 478.02 602.4 486.29 600.74 494.68 598.34 503.25 595.24 511.96 591.75 520.7 587.62 529.46 582.91 538.15 577.89 546.66 572.37 554.9 566.44 562.71 560.28 570.05 553.79 576.72 547.04 582.53 540.16 587.57 533.08 591.54 525.87 594.33 518.61 596.17 511.26 596.75 503.86 596.07 496.47 594.6 489.06 592.05 481.68 588.58 474.31 584.84 466.98 580.64 459.7 576.24 452.45 572.37 445.26 568.88 438.14 566.07 431.04 564.52 424.01 564.07 417.06 564.86 410.12 567.21 403.25 570.8 396.48 575.49 389.7 581.35 383.16 587.64 376.86 593.99 370.55 600.48 364.48 606.33 358.64 611.2 349.96 616.58 333.7 617.79 326.1 613.43 321.06 608.8 316.24 602.88 311.61 595.87 306.93 588.15 302.43 579.75 298.11 570.93 293.71 561.95 289.47 552.91 285.38 544 281.18 535.37 277.11 527.08 273.17 519.2 269.08 511.81 265.1 504.89 261.22 498.41 257.18 492.44 253.23 486.84 249.37 481.55 245.34 476.66 241.4 471.94 237.57 467.32 233.58 462.96 229.71 458.57 225.98 454.08 222.14 449.72 218.46 445.18 214.99 440.39 211.48 435.66 208.21 430.63 205.23 425.28 202.29 419.95 199.69 414.27 197.48 408.25 195.39 402.22 193.75 395.84 192.6 389.12 191.65 382.39 191.26 375.5 191.41 368.46 191.79 361.45 192.71 354.32 194.17 347.13 195.84 339.97 198.03 332.79 200.69 325.63 203.54 318.56 206.83 311.56 210.52 304.7 214.34 297.99 218.53 291.49 223.03 285.27 227.61 279.28 232.46 273.64 237.55 268.44 242.66 263.53 247.97 259.12 253.45 255.26 258.9 251.73 264.49 248.77 270.21 246.4 275.86 244.3 281.62 242.74 287.48 241.7 293.25 240.75 299.12 240.18 305.07 239.89 310.94 239.43 316.91 239.05 322.96 238.65 328.94 237.77 335.03 236.66 341.21 235.23 347.34 233.1 353.59 230.55 359.95 227.56 366.28 223.87 372.75 219.82 379.35 215.49 385.92 210.74 392.65 205.98 399.52 201.4 406.39 196.91 413.41 192.98 420.58 189.8" stroke-dasharray="9 7" transform="rotate(32.32, 400, 400)" opacity="0.39"></path><path d="M422.13 200.51C428.93 198.03 435.67 196.58 442.34 196.18 449.01 196.57 455.6 198.02 462.08 200.48 468.55 203.62 474.9 207.6 481.09 212.29 487.24 217.34 493.21 222.84 498.96 228.64 504.64 234.44 510.07 240.31 515.2 246.14 520.23 251.67 524.92 257.01 529.24 262.11 535.3 268.96 545.02 280.67 548.6 285.7 553.01 294.21 554.93 306.87 554.24 311.62 553.46 316.59 551.58 328.1 550.84 334.68 550.83 341.61 552.59 357.04 554.54 365.5 556.5 371.24 558.73 377.26 561.21 383.56 564.17 389.85 567.21 396.28 570.23 402.84 573.54 409.41 576.67 416.12 579.56 422.97 582.5 429.86 585.04 436.92 587.11 444.14 589.03 451.42 590.38 458.89 591.12 466.53 591.57 474.24 591.36 482.12 590.49 490.12 589.26 498.16 587.37 506.27 584.85 514.39 581.98 522.43 578.52 530.35 574.52 538.06 570.22 545.49 565.44 552.53 560.25 559.04 554.84 565.03 549.08 570.29 543.03 574.7 536.84 578.38 530.43 581.06 523.85 582.66 517.19 583.49 510.42 583.23 503.56 581.93 496.68 580.05 489.75 577.33 482.82 573.92 475.88 570.42 468.95 566.64 462.05 562.81 455.17 559.55 448.32 556.72 441.54 554.53 434.76 553.51 428.05 553.47 421.41 554.5 414.77 556.9 408.21 560.37 401.73 564.78 395.24 570.21 388.99 576.02 382.97 581.9 376.93 587.94 371.12 593.46 365.53 598.17 357.21 603.69 341.6 606.57 334.27 603.64 329.4 600.13 324.72 595.37 320.22 589.54 315.66 582.96 311.26 575.61 307.03 567.72 302.7 559.51 298.52 551.08 294.47 542.57 290.31 534.16 286.27 525.9 282.34 517.88 278.27 510.19 274.3 502.84 270.42 495.84 266.4 489.24 262.47 482.97 258.62 477.01 254.63 471.4 250.73 466.01 246.93 460.78 243.01 455.82 239.2 450.91 235.54 446.01 231.79 441.27 228.21 436.45 224.83 431.5 221.42 426.63 218.26 421.57 215.38 416.3 212.53 411.05 210.02 405.56 207.89 399.81 205.87 394.06 204.27 388.05 203.14 381.77 202.19 375.49 201.76 369.11 201.85 362.65 202.15 356.2 202.96 349.71 204.27 343.21 205.8 336.76 207.8 330.33 210.25 324 212.88 317.74 215.94 311.63 219.38 305.71 222.96 299.93 226.89 294.41 231.12 289.2 235.45 284.2 240.05 279.57 244.89 275.37 249.77 271.41 254.85 267.92 260.1 264.94 268.05 261.06 284.57 255.98 293.07 254.59 301.58 253.49 318.94 251.83 327.77 250.74 333.64 249.49 339.59 247.98 345.63 246.16 351.62 243.69 357.71 240.83 363.89 237.6 370.05 233.77 376.31 229.64 382.67 225.32 389.02 220.66 395.49 216.04 402.06 211.64 408.63 207.34 415.32 203.57 422.12 200.52" stroke-dasharray="8 8" transform="rotate(36.36, 400, 400)" opacity="0.83"></path><path d="M422.46 211.23C428.86 208.82 435.18 207.35 441.39 206.85 447.6 207.05 453.7 208.23 459.67 210.35 471.54 216.42 482.77 225.35 493.12 236.1 503.2 247.18 512.18 258.51 519.78 269.41 526.91 278.92 532.48 287.57 536.36 295.45 539.77 301.91 541.58 308.14 541.89 314.51 542.24 320.19 541.63 326.6 540.44 333.95 540.26 341.14 540.27 349.51 540.8 359.09 542.36 366.41 547.32 382.56 550.68 391.4 553.4 397.4 556.17 403.57 558.91 409.9 561.91 416.24 564.75 422.75 567.37 429.42 572.74 442.83 576.49 456.94 578.3 471.54 579.22 486.19 577.75 501.12 573.99 515.79 569.06 529.81 562.02 542.69 553.25 553.5 543.67 562.31 532.78 567.98 521.01 569.91 508.91 569.43 496.26 565.65 483.4 559.34 470.49 553.25 457.51 547.34 444.68 543.18 438.27 542.63 431.91 542.94 425.6 544.18 419.3 546.61 413.06 549.94 406.88 554.07 400.71 559.09 394.74 564.43 388.98 569.84 383.22 575.44 377.66 580.61 372.3 585.12 361.52 592.53 351.49 595.34 342.19 593.2 332.72 587.27 323.85 577.07 315.59 563.85 307 549.01 298.85 533.17 291.14 517.4 282.96 502.27 275.1 488.06 267.6 474.96 259.62 462.97 252.01 451.75 244.95 441.01 237.63 430.87 231.04 420.64 225.47 410.08 222.74 404.84 220.33 399.47 218.27 393.93 216.33 388.41 214.78 382.71 213.67 376.85 212.73 370.98 212.28 365.09 212.3 359.21 212.53 353.33 213.23 347.49 214.4 341.7 217.33 330.24 222.02 319.25 228.23 309.11 235 299.46 243.05 291.03 252.1 284.18 261.36 278.01 271.4 273.52 281.99 270.71 292.54 268.09 303.53 266.52 314.83 265.53 325.97 263.31 337.45 260.53 349.17 256.72 360.77 250.61 372.72 243.24 384.94 235.05 391.03 230.52 397.21 226.07 403.47 221.84 409.72 217.75 416.05 214.16 422.45 211.23" stroke-dasharray="6 0" transform="rotate(40.400000000000006, 400, 400)" opacity="0.30"></path><path d="M421.57 221.94C433.55 217.85 445.07 217.32 455.99 220.28 466.83 225.55 476.96 233.57 486.16 243.48 495.13 253.98 503.01 265.03 509.59 275.97 515.8 285.93 520.61 295.26 523.92 303.91 526.93 311.3 528.59 318.35 529.01 325.33 529.59 331.55 529.41 338.21 528.77 345.56 529.09 352.62 529.58 360.66 530.49 369.77 533.03 378.8 536.28 388.99 540.15 400.39 545.47 411.79 550.64 423.91 555.24 436.59 560.12 449.31 563.61 462.57 565.43 476.1 566.57 489.48 565.65 502.8 562.69 515.48 558.77 527.34 552.92 537.76 545.44 545.99 537.22 552.41 527.71 555.94 517.25 556.23 506.44 554.78 494.99 550.75 483.21 544.91 471.34 539.74 459.29 535.02 447.29 532.01 435.29 532.74 423.37 536.57 411.66 543.35 399.95 553.22 388.96 563.33 378.72 572.05 368.4 579.39 358.73 582.89 349.71 582.14 340.52 578.13 331.85 570.14 323.71 559.12 315.27 546.28 307.21 531.99 299.55 517.24 291.48 502.58 283.71 488.38 276.3 474.97 268.5 462.34 261.08 450.42 254.22 439.1 247.17 428.31 240.85 417.7 235.51 407.11 230.38 396.67 226.51 385.96 224.2 375 222.52 364.04 222.67 353.33 224.55 343.09 227.16 332.96 231.41 323.52 237.09 315.06 243.32 306.96 250.78 300.09 259.21 294.67 267.9 289.65 277.38 286.03 287.41 283.72 297.47 281.25 307.99 279.45 318.82 277.88 329.56 274.98 340.61 271.42 351.87 266.89 363.05 260.34 374.49 252.79 386.13 244.69 397.74 235.84 409.58 227.9 421.56 221.94" stroke-dasharray="7 1" transform="rotate(44.44, 400, 400)" opacity="0.64"></path><path d="M419.5 232.65C430.63 228.68 441.22 227.91 451.14 230.29 460.99 234.77 470.08 241.86 478.24 250.86 486.22 260.61 493.14 271.17 498.86 281.9 504.31 292.02 508.51 301.76 511.43 310.98 514.17 319.16 515.79 326.98 516.39 334.61 517.23 341.5 517.48 348.6 517.35 356.14 518.13 363.35 519.03 371.3 520.26 380.11 522.87 388.82 526.02 398.54 529.61 409.32 534.45 420.11 539.08 431.49 543.18 443.27 547.58 455.05 550.78 467.14 552.54 479.22 553.82 491.04 553.3 502.46 551.02 512.97 547.96 522.6 543.16 530.64 536.84 536.53 529.89 540.9 521.68 542.72 512.5 541.86 502.98 539.84 492.74 535.9 482.08 530.74 471.3 526.55 460.24 522.98 449.12 521.02 437.99 522.35 426.84 526.28 415.8 532.64 404.77 541.66 394.34 550.87 384.55 558.97 374.69 566.13 365.39 570.11 356.64 570.48 347.74 568.16 339.28 562.22 331.28 553.36 323.01 542.65 315.08 530.2 307.51 516.89 299.6 503.26 291.97 489.64 284.71 476.47 277.14 463.73 269.97 451.55 263.35 439.99 256.61 428.82 250.59 418.01 245.51 407.48 240.64 397.08 236.96 386.73 234.73 376.48 233.07 366.22 233.1 356.51 234.73 347.5 237.01 338.56 240.83 330.46 245.98 323.39 251.65 316.55 258.49 310.87 266.27 306.46 274.33 302.2 283.18 299.05 292.59 296.85 302.07 294.23 312.03 291.97 322.29 289.71 332.53 286.09 343.06 281.81 353.76 276.65 364.43 269.79 375.31 262.17 386.29 254.24 397.26 245.79 408.37 238.29 419.5 232.65" stroke-dasharray="6 4" transform="rotate(48.48, 400, 400)" opacity="0.16"></path><path d="M416.37 243.37C426.63 239.53 436.3 238.55 445.26 240.4 454.17 244.11 462.31 250.26 469.54 258.28 476.63 267.16 482.73 277.02 487.75 287.3 492.59 297.29 496.34 307.15 498.99 316.67 501.58 325.43 503.24 333.86 504.07 342.04 505.2 349.58 505.85 357.18 506.2 364.99 507.36 372.48 508.61 380.47 510.09 389.08 512.74 397.59 515.77 406.89 519.08 417.02 523.45 427.14 527.57 437.65 531.18 448.34 535.11 458.98 537.99 469.67 539.65 480.08 540.97 490.17 540.77 499.61 539.02 507.94 536.67 515.45 532.78 521.36 527.5 525.27 521.7 528 514.69 528.57 506.72 527 498.44 524.8 489.41 521.22 479.86 516.9 470.2 513.71 460.17 511.23 449.97 510.21 439.75 512.03 429.41 515.99 419.09 521.92 408.76 530.12 398.92 538.47 389.6 545.91 380.23 552.76 371.31 557.02 362.86 558.28 354.27 557.37 346.06 553.27 338.23 546.45 330.18 537.89 322.43 527.45 315 515.86 307.3 503.68 299.89 491.14 292.84 478.71 285.55 466.41 278.67 454.48 272.35 443.06 265.95 431.9 260.26 421.14 255.46 410.82 250.88 400.61 247.41 390.67 245.26 381.08 243.63 371.49 243.56 362.66 244.94 354.67 246.91 346.72 250.29 339.69 254.91 333.68 260.01 327.76 266.21 322.89 273.32 319.07 280.71 315.19 288.86 312.14 297.58 309.74 306.42 306.75 315.73 303.9 325.34 300.88 334.98 296.58 344.89 291.65 354.96 286 365.02 278.95 375.24 271.38 385.51 263.7 395.78 255.71 406.11 248.67 416.37 243.37" stroke-dasharray="7 9" transform="rotate(52.52, 400, 400)" opacity="0.94"></path><path d="M412.35 254.08C421.73 250.4 430.5 249.25 438.57 250.6 446.6 253.58 453.86 258.8 460.28 265.8 466.6 273.72 472.02 282.72 476.48 292.32 480.83 301.9 484.26 311.58 486.75 321.1 489.28 330.11 491.03 338.9 492.11 347.45 493.52 355.49 494.54 363.49 495.31 371.54 496.79 379.31 498.32 387.37 499.98 395.8 502.62 404.15 505.51 413.03 508.55 422.45 512.47 431.87 516.11 441.4 519.26 450.87 522.72 460.28 525.28 469.46 526.79 478.14 528.09 486.49 528.09 494.01 526.76 500.35 523.43 508.06 509.74 513.9 499.94 511.93 492.82 509.86 484.94 506.85 476.5 503.45 467.94 501.25 458.94 499.78 449.68 499.57 440.4 501.77 430.9 505.71 421.33 511.21 411.75 518.61 402.53 526.11 393.72 532.88 384.87 539.33 376.37 543.69 368.24 545.6 360.02 545.81 352.09 543.3 344.5 538.34 336.73 531.81 329.21 523.42 322 513.72 314.59 503.28 307.45 492.2 300.67 480.93 293.73 469.57 287.2 458.33 281.21 447.47 275.2 436.71 269.86 426.33 265.37 416.42 261.09 406.59 257.83 397.15 255.79 388.2 254.21 379.25 254.04 371.17 255.19 364 256.86 356.82 259.81 350.57 263.9 345.26 268.43 339.93 273.98 335.5 280.39 331.9 287.08 328.09 294.5 324.86 302.47 322.03 310.59 318.54 319.18 315.03 328.07 311.28 337.01 306.38 346.23 300.94 355.57 294.94 364.94 287.84 374.43 280.42 383.93 273.09 393.45 265.59 402.96 259.04 412.35 254.08" stroke-dasharray="11 5" transform="rotate(56.56, 400, 400)" opacity="0.58"></path><path d="M407.65 264.8C416.15 261.29 424.06 260 431.3 260.9 438.5 263.2 444.99 267.52 450.7 273.5 456.35 280.38 461.2 288.4 465.23 297.12 469.21 306.04 472.4 315.23 474.83 324.44 477.33 333.39 479.22 342.22 480.55 350.87 482.22 359.16 483.56 367.37 484.68 375.52 486.41 383.44 488.15 391.49 489.94 399.69 492.53 407.81 495.25 416.22 498.02 424.89 501.51 433.55 504.69 442.07 507.41 450.29 510.42 458.43 512.65 466.13 513.98 473.15 513.5 489.33 500.48 498.99 492.19 496.89 486.15 495.19 479.35 492.9 471.96 490.46 464.47 489.19 456.49 488.62 448.17 489.09 439.83 491.59 431.2 495.44 422.4 500.5 413.6 507.13 405.04 513.81 396.78 519.89 388.5 525.85 380.47 530.15 372.74 532.48 364.93 533.55 357.35 532.34 350.06 528.99 342.64 524.33 335.44 517.89 328.53 510.11 321.46 501.55 314.67 492.17 308.24 482.37 301.7 472.31 295.56 462.17 289.95 452.2 284.36 442.24 279.4 432.54 275.24 423.27 271.28 414.03 268.25 405.2 266.33 396.88 264.8 388.57 264.54 381.13 265.48 374.58 266.86 367.99 269.4 362.25 272.97 357.33 276.93 352.32 281.84 348.02 287.53 344.35 293.5 340.37 300.16 336.78 307.35 333.41 314.7 329.37 322.49 325.22 330.6 320.82 338.78 315.46 347.21 309.66 355.77 303.48 364.37 296.47 373.08 289.32 381.76 282.4 390.47 275.44 399.14 269.39 407.65 264.8" stroke-dasharray="3 8" transform="rotate(60.599999999999994, 400, 400)" opacity="0.15"></path><path d="M402.53 275.51C410.17 272.21 417.25 270.82 423.71 271.31 430.15 273 435.94 276.46 441.05 281.43 446.13 287.24 450.52 294.18 454.2 301.9 457.88 309.93 460.92 318.38 463.32 326.99 465.84 335.53 467.86 344.08 469.43 352.51 471.3 360.74 472.9 368.88 474.3 376.91 476.22 384.79 478.1 392.66 479.95 400.5 482.45 408.3 484.99 416.16 487.49 424.03 490.57 431.9 493.33 439.39 495.65 446.4 499.17 456.51 502.44 472.82 501.74 478.36 499.74 482.27 490.53 483.91 483.57 482.14 478.48 480.98 472.68 479.47 466.29 477.97 459.8 477.56 452.8 477.75 445.42 478.78 438.01 481.46 430.26 485.18 422.26 489.78 414.26 495.68 406.4 501.56 398.74 506.95 391.07 512.36 383.57 516.47 376.29 519.02 368.97 520.68 361.82 520.47 354.91 518.46 347.91 515.41 341.11 510.74 334.57 504.79 327.94 498.11 321.56 490.51 315.54 482.33 309.46 473.83 303.77 465.05 298.58 456.26 293.44 447.39 288.89 438.65 285.08 430.2 281.45 421.76 278.66 413.65 276.86 405.98 275.4 398.32 275.07 391.45 275.81 385.34 276.92 379.2 279.06 373.77 282.13 369 285.54 364.1 289.8 359.73 294.79 355.81 300.03 351.55 305.91 347.51 312.29 343.58 318.83 339.04 325.8 334.37 333.06 329.47 340.42 323.81 348.02 317.84 355.74 311.64 363.51 304.86 371.38 298.09 379.22 291.64 387.08 285.26 394.89 279.74 402.53 275.51" stroke-dasharray="3 4" transform="rotate(64.64, 400, 400)" opacity="0.54"></path><path d="M397.28 286.22C407.21 282.42 424.41 284.31 431.58 289.64 436.15 294.4 440.15 300.22 443.56 306.83 447.01 313.81 449.92 321.31 452.33 329.07 454.86 336.9 456.99 344.85 458.75 352.75 460.78 360.59 462.57 368.37 464.18 376.01 466.2 383.58 468.15 391.06 470.01 398.39 472.39 405.71 474.73 412.93 476.96 419.97 479.65 427 482.01 433.52 483.95 439.43 487.9 461.09 479.99 469.02 474.19 467.9 467.48 467 450.96 466.75 441.46 468.62 434.95 471.39 428.08 474.92 420.9 479.07 413.73 484.25 406.6 489.37 399.6 494.07 392.58 498.89 385.68 502.69 378.94 505.28 372.16 507.28 365.52 507.79 359.08 506.83 352.59 505.08 346.26 501.94 340.18 497.62 334.05 492.69 328.16 486.82 322.61 480.3 317.04 473.44 311.84 466.16 307.12 458.7 302.45 451.13 298.33 443.52 294.88 436.05 291.59 428.56 289.05 421.27 287.39 414.29 286.01 407.31 285.63 400.95 286.18 395.21 287.93 386.8 296.1 372.27 302.21 365.77 306.72 361.22 311.82 356.77 317.38 352.36 323.09 347.46 329.21 342.42 335.61 337.22 342.1 331.45 348.83 325.49 355.68 319.45 362.58 313.03 369.58 306.74 376.55 300.83 383.54 295.05 390.49 290.07 397.28 286.22" stroke-dasharray="2 3" transform="rotate(68.68, 400, 400)" opacity="0.56"></path><path d="M392.17 296.94C404.09 292 414.3 292.67 422.53 298.19 430.78 306.28 437.23 317.81 441.92 331.06 447.1 344.92 451.17 359.38 454.29 373.38 458.75 387.33 462.89 400.85 466.43 413.25 471.39 425.64 474.75 435.6 476.13 442.72 477.05 451.43 464.65 455.24 451.9 454.62 442.43 457.33 431.09 461.92 418.4 468.36 405.72 477.98 392.97 486.21 380.72 491.35 368.4 495.13 356.45 494.04 345.4 488.61 334.26 481.29 324.07 470.83 315.57 458.8 307.33 446.27 301.16 433.22 297.92 420.69 295.61 408.16 296.76 397.27 300.81 387.89 305.78 377.98 313.35 368.69 322.72 359.65 332.61 349.12 343.91 338.05 355.79 326.95 367.85 314.98 380.25 304.31 392.17 296.94" stroke-dasharray="9 7" transform="rotate(72.72, 400, 400)" opacity="0.56"></path><path d="M387.49 307.65C397.81 303.08 406.74 303.09 414.1 307.13 421.51 313.23 427.53 322.42 432.15 333.36 437.2 345.04 441.35 357.54 444.63 369.79 448.93 382.14 452.79 394.06 455.9 404.77 460.08 415.47 462.77 423.84 463.76 429.71 464.41 437.18 454.15 442.45 443.49 443.81 435.57 447.21 425.91 451.88 414.9 457.64 403.89 465.81 392.65 472.76 381.74 477.31 370.81 481.17 360.14 481.29 350.28 477.87 340.42 473.13 331.42 465.51 323.94 456.08 316.74 446.21 311.34 435.36 308.45 424.34 306.31 413.32 307.1 403.16 310.36 393.89 314.34 384.22 320.57 374.76 328.39 365.44 336.63 355.11 346.17 344.49 356.28 334.19 366.55 323.49 377.18 314.13 387.49 307.65" stroke-dasharray="10 5" transform="rotate(76.76, 400, 400)" opacity="0.97"></path><path d="M383.5 318.36C392.25 314.23 399.97 313.75 406.49 316.49 413.07 320.8 418.61 327.75 423.06 336.34 427.86 345.66 431.92 355.89 435.2 366.11 439.2 376.5 442.69 386.6 445.36 395.65 449.86 408.24 451.91 423.62 448.63 427.12 445.74 429.68 440.97 431.66 434.54 433.57 428.01 437.35 419.93 441.88 410.59 446.93 401.24 453.72 391.58 459.41 382.13 463.25 372.69 466.85 363.45 467.64 354.9 465.64 346.4 462.84 338.67 457.54 332.27 450.41 326.12 442.95 321.49 434.21 318.98 424.76 317.04 415.3 317.52 406.05 320.07 397.19 323.14 388.06 328.11 378.89 334.45 369.82 341.12 360.16 348.94 350.41 357.33 341.21 365.84 331.94 374.74 323.93 383.5 318.36" stroke-dasharray="7 1" transform="rotate(80.80000000000001, 400, 400)" opacity="0.93"></path><path d="M380.4 329.08C387.63 325.45 394.17 324.63 399.82 326.31 405.54 329.09 410.51 334.01 414.65 340.36 419.06 347.31 422.86 355.19 425.96 363.27 429.54 371.51 432.6 379.67 434.83 387.11 438.38 397.55 439.57 411.41 436.75 415.57 434.37 418.62 430.49 421.32 425.26 423.88 419.98 427.73 413.39 431.93 405.69 436.21 398 441.69 389.97 446.18 382.07 449.24 374.2 452.32 366.48 453.34 359.33 452.25 352.27 450.74 345.86 447.2 340.56 441.97 335.47 436.53 331.64 429.72 329.52 421.88 327.8 414.04 328.04 405.93 329.94 397.87 332.21 389.67 336.03 381.28 340.99 372.99 346.19 364.43 352.37 355.93 359.1 348.09 365.92 340.34 373.16 333.72 380.4 329.08" stroke-dasharray="2 10" transform="rotate(84.84, 400, 400)" opacity="0.59"></path><path d="M378.37 339.79C389.89 334.48 399.76 337.4 406.94 345.69 414.8 355.65 421.07 368.49 424.3 380.29 428.84 392.08 429 400.43 425.08 405.65 421.18 412.62 412.66 419.44 400.49 425.5 388.32 434.56 375.08 439.2 363.68 438.09 352.57 436.35 343.72 428.54 340.05 416.09 337.43 403.65 340.79 389.16 348.05 375.24 355.91 361.03 366.84 347.73 378.37 339.79" stroke-dasharray="5 2" transform="rotate(88.88, 400, 400)" opacity="0.08"></path><path d="M377.52 350.5C386.14 346.14 393.93 347.39 399.88 352.54 406.21 358.64 411.27 367.3 413.77 376.08 416.98 384.87 416.82 392.09 413.69 397.46 410.64 403.86 404.27 409.97 395.26 414.79 386.25 421.27 376.45 424.42 368.04 423.61 359.84 422.7 353.32 417.39 350.58 408.17 348.45 398.94 350.62 387.7 355.68 376.92 361.08 366.22 368.89 356.38 377.52 350.5" stroke-dasharray="0 4" transform="rotate(92.92, 400, 400)" opacity="0.36"></path><path d="M377.89 361.22C389.4 355.72 400.16 363.35 403.24 375.06 407.56 386.75 402.16 398.2 390.29 404.07 378.41 412.86 365 411.29 361.11 399.15 358.34 387.01 366.38 369.44 377.89 361.22" stroke-dasharray="6 8" transform="rotate(96.96, 400, 400)" opacity="0.26"></path></g></svg>