<svg xmlns="http://www.w3.org/2000/svg" version="1.1" xmlns:xlink="http://www.w3.org/1999/xlink"
    xmlns:svgjs="http://svgjs.dev/svgjs" viewBox="0 0 800 800">
    <defs>
        <linearGradient x1="50%" y1="0%" x2="50%" y2="100%" id="ccchaos-grad">
            <stop stop-color="#3558e3" stop-opacity="1" offset="0%"></stop>
            <stop stop-color="#0b96ae" stop-opacity="1" offset="100%"></stop>
        </linearGradient>
    </defs>
    <g stroke-width="2" stroke="url(#ccchaos-grad)" fill="none" stroke-linecap="round">
        <path
            d="M381.7 99.72C391.14 99.96 400.6 101.19 410.07 103.35 419.56 105.94 429.07 109.35 438.61 113.48 448.2 117.84 457.85 122.75 467.56 128.12 477.35 133.48 487.25 139.14 497.23 145.02 507.35 150.69 517.58 156.48 527.92 162.32 538.38 167.84 548.95 173.39 559.58 178.94 570.3 184.13 581.02 189.35 591.66 194.6 602.25 199.54 612.65 204.57 622.73 209.73 632.55 214.64 641.87 219.75 650.53 225.08 658.68 230.25 665.96 235.71 672.24 241.47 677.77 247.16 682.12 253.19 685.21 259.56 687.45 265.91 688.39 272.64 688.02 279.72 686.95 286.8 684.73 294.25 681.49 302.05 677.95 309.85 673.74 317.99 669.07 326.44 664.71 334.89 660.35 343.65 656.21 352.7 653.02 361.74 650.44 371.06 648.62 380.64 648.14 390.23 648.53 399.86 649.72 409.53 652.09 419.2 654.99 428.93 658.23 438.71 662.15 448.52 665.99 458.41 669.53 468.37 673.13 478.41 676.03 488.55 678.08 498.78 679.67 509.12 680.14 519.57 679.44 530.1 678.02 540.74 675.35 551.44 671.48 562.16 666.86 572.92 661.13 583.62 654.4 594.19 647.06 604.65 638.89 614.84 630.03 624.62 620.8 634.09 611.05 642.98 600.93 651.14 590.65 658.74 580.13 665.42 569.49 671.04 558.82 675.91 548.12 679.59 537.45 682.02 526.84 683.66 516.29 684.06 505.83 683.25 495.47 681.84 485.2 679.44 475.03 676.16 464.95 672.76 454.95 668.86 445.04 664.69 435.19 661.01 425.4 657.49 415.69 654.34 406.01 652.26 396.37 650.86 386.81 650.27 377.25 651.01 367.97 652.55 358.98 654.77 349.97 658.03 341.25 661.64 332.81 665.39 324.36 669.61 316.19 673.52 308.32 676.92 300.42 680.17 292.8 682.53 285.49 683.87 278.13 684.6 271.04 684.1 264.24 682.36 257.36 679.82 250.74 676.02 244.37 671.04 237.89 665.31 231.62 658.53 225.56 650.84 219.35 642.6 213.31 633.64 207.45 624.1 201.39 614.27 195.49 604.04 189.74 593.55 183.78 582.96 177.97 572.25 172.34 561.49 166.52 550.78 160.89 540.08 155.49 529.47 149.96 518.96 144.71 508.53 139.78 498.22 134.82 488.01 130.24 477.9 126.1 467.89 122.03 457.96 118.46 448.09 115.46 438.29 112.62 428.54 110.4 418.83 108.84 409.17 107.51 399.52 106.87 389.89 106.96 380.31 107.3 370.73 108.35 361.41 110.07 352.37 111.98 343.32 114.51 334.56 117.6 326.09 120.79 317.63 124.48 309.48 128.6 301.67 132.73 293.87 137.22 286.41 142.03 279.32 146.74 272.23 151.72 265.5 156.92 259.14 161.94 252.77 167.16 246.74 172.54 241.06 177.71 235.31 183.04 229.87 188.53 224.71 193.81 219.41 199.27 214.33 204.9 209.45 210.35 204.34 216.02 199.35 221.9 194.46 227.66 189.25 233.67 184.08 239.94 178.94 246.13 173.45 252.62 167.95 259.39 162.48 266.12 156.68 273.16 150.93 280.5 145.29 287.82 139.44 295.45 133.79 303.36 128.44 311.27 123.07 319.47 118.15 327.93 113.77 336.39 109.61 345.11 106.16 354.08 103.52 363.04 101.31 372.25 100.02 381.69 99.72"
            stroke-dasharray="8 8" transform="rotate(0, 400, 400)" opacity="0.05"></path>
        <path
            d="M384.86 110.31C394.01 110.53 403.21 111.71 412.45 113.77 421.71 116.26 431.03 119.53 440.4 123.5 449.81 127.71 459.31 132.47 468.87 137.68 478.51 142.92 488.26 148.48 498.09 154.26 508.01 159.89 518.04 165.65 528.14 171.49 538.32 177.04 548.56 182.64 558.81 188.25 569.08 193.53 579.29 198.84 589.36 204.18 599.33 209.21 609.02 214.32 618.34 219.52 627.36 224.48 635.84 229.6 643.63 234.9 650.91 240.03 657.34 245.4 662.77 251.03 667.52 256.56 671.17 262.4 673.63 268.54 675.34 274.64 675.87 281.08 675.23 287.85 673.99 294.61 671.74 301.71 668.6 309.14 665.24 316.56 661.3 324.32 656.96 332.4 652.97 340.47 648.97 348.86 645.18 357.55 642.27 366.23 639.9 375.21 638.2 384.48 637.72 393.75 638.01 403.11 639.01 412.52 641.09 421.95 643.65 431.46 646.53 441.04 650.07 450.66 653.55 460.36 656.8 470.15 660.16 480 662.92 489.96 664.95 499.99 666.63 510.09 667.32 520.29 666.97 530.53 666.01 540.82 663.92 551.14 660.72 561.42 656.85 571.67 651.92 581.81 646.04 591.74 639.58 601.52 632.3 610.96 624.31 619.95 615.93 628.59 607.01 636.62 597.65 643.89 588.09 650.62 578.24 656.45 568.19 661.26 558.08 665.38 547.87 668.4 537.63 670.26 527.42 671.42 517.21 671.47 507.07 670.44 496.98 668.93 486.97 666.54 477.04 663.39 467.18 660.19 457.4 656.57 447.72 652.73 438.08 649.38 428.51 646.19 419.05 643.34 409.6 641.47 400.22 640.22 390.94 639.68 381.65 640.37 372.65 641.75 363.95 643.74 355.24 646.71 346.81 649.99 338.67 653.41 330.51 657.3 322.63 660.94 315.04 664.15 307.41 667.28 300.05 669.63 292.97 671.09 285.84 672.05 278.96 671.92 272.34 670.66 265.64 668.7 259.17 665.58 252.92 661.35 246.55 656.44 240.38 650.51 234.4 643.69 228.26 636.33 222.28 628.22 216.46 619.51 210.45 610.47 204.58 600.98 198.86 591.16 192.95 581.2 187.19 571.04 181.59 560.77 175.83 550.49 170.27 540.17 164.92 529.88 159.48 519.65 154.3 509.47 149.45 499.38 144.58 489.37 140.09 479.44 136.02 469.61 132.05 459.84 128.56 450.15 125.62 440.55 122.86 430.99 120.69 421.5 119.17 412.08 117.89 402.68 117.28 393.33 117.38 384.07 117.73 374.8 118.77 365.82 120.46 357.14 122.35 348.46 124.84 340.07 127.88 331.99 131.03 323.91 134.66 316.14 138.72 308.71 142.79 301.28 147.22 294.17 151.97 287.42 156.63 280.64 161.56 274.21 166.7 268.11 171.68 261.97 176.86 256.15 182.2 250.63 187.33 245.02 192.63 239.66 198.07 234.56 203.31 229.29 208.71 224.21 214.27 219.28 219.65 214.12 225.23 209.06 230.99 204.08 236.62 198.79 242.48 193.53 248.58 188.3 254.58 182.74 260.84 177.19 267.37 171.68 273.85 165.88 280.6 160.16 287.64 154.56 294.65 148.79 301.95 143.25 309.53 138.02 317.09 132.8 324.94 128.03 333.06 123.79 341.17 119.79 349.54 116.48 358.18 113.94 366.81 111.83 375.7 110.59 384.85 110.31"
            stroke-dasharray="5 5" transform="rotate(4.04, 400, 400)" opacity="0.09"></path>
        <path
            d="M388.69 120.9C397.56 121.11 406.5 122.23 415.5 124.2 424.52 126.57 433.62 129.7 442.79 133.51 451.99 137.56 461.29 142.15 470.65 147.2 480.08 152.3 489.6 157.73 499.2 163.4 508.86 168.95 518.59 174.66 528.36 180.47 538.17 186.04 548 191.66 557.77 197.31 567.52 202.66 577.15 208.05 586.57 213.46 595.85 218.59 604.81 223.78 613.33 229.04 621.55 234.06 629.19 239.21 636.12 244.51 642.57 249.64 648.17 254.96 652.83 260.51 656.86 265.94 659.86 271.64 661.77 277.61 663.03 283.52 663.22 289.73 662.36 296.24 661.02 302.73 658.78 309.53 655.75 316.66 652.59 323.76 648.93 331.19 644.93 338.93 641.28 346.67 637.64 354.71 634.18 363.07 631.54 371.42 629.37 380.08 627.78 389.04 627.31 398 627.5 407.07 628.33 416.22 630.14 425.38 632.38 434.64 634.92 443.99 638.08 453.36 641.21 462.83 644.16 472.38 647.26 481.98 649.86 491.66 651.83 501.41 653.54 511.2 654.4 521.05 654.33 530.9 653.75 540.77 652.15 550.61 649.54 560.35 646.34 570.03 642.16 579.53 637.07 588.76 631.45 597.81 625.01 606.47 617.88 614.63 610.35 622.44 602.25 629.61 593.68 636.03 584.89 641.93 575.75 646.95 566.36 651.01 556.87 654.46 547.22 656.87 537.49 658.23 527.75 659 517.97 658.77 508.22 657.57 498.49 656 488.8 653.66 479.18 650.67 469.6 647.68 460.09 644.35 450.67 640.84 441.29 637.81 431.99 634.93 422.78 632.36 413.59 630.7 404.48 629.59 395.46 629.1 386.45 629.72 377.73 630.96 369.3 632.74 360.86 635.42 352.7 638.39 344.83 641.49 336.93 645.06 329.3 648.42 321.95 651.42 314.55 654.4 307.42 656.72 300.54 658.24 293.6 659.38 286.89 659.54 280.43 658.69 273.86 657.24 267.51 654.73 261.37 651.19 255.09 647.03 249 641.91 243.07 635.92 236.99 629.41 231.06 622.16 225.27 614.29 219.31 606.06 213.48 597.34 207.8 588.25 201.94 578.98 196.22 569.44 190.68 559.74 184.99 549.99 179.49 540.14 174.22 530.27 168.86 520.41 163.78 510.57 159.01 500.79 154.25 491.05 149.86 481.38 145.89 471.8 142.01 462.26 138.62 452.8 135.76 443.44 133.08 434.12 130.98 424.87 129.5 415.71 128.27 406.58 127.69 397.52 127.79 388.56 128.15 379.61 129.18 370.95 130.84 362.61 132.7 354.25 135.14 346.2 138.12 338.47 141.21 330.73 144.78 323.3 148.76 316.2 152.76 309.07 157.13 302.27 161.8 295.79 166.4 289.28 171.26 283.07 176.34 277.18 181.28 271.22 186.41 265.54 191.7 260.13 196.81 254.6 202.07 249.3 207.46 244.21 212.67 238.94 218.03 233.83 223.53 228.85 228.85 223.63 234.35 218.49 240.03 213.41 245.56 208.05 251.3 202.71 257.25 197.4 263.1 191.8 269.18 186.22 275.51 180.7 281.77 174.92 288.29 169.25 295.07 163.72 301.81 158.06 308.83 152.64 316.11 147.55 323.37 142.49 330.91 137.88 338.72 133.8 346.51 129.96 354.57 126.79 362.9 124.36 371.22 122.34 379.82 121.17 388.68 120.9"
            stroke-dasharray="3 0" transform="rotate(8.08, 400, 400)" opacity="0.13"></path>
        <path
            d="M393.03 131.48C401.62 131.68 410.29 132.74 419.04 134.62 427.8 136.87 436.65 139.86 445.57 143.5 454.53 147.38 463.57 151.8 472.68 156.67 481.84 161.61 491.07 166.89 500.35 172.44 509.67 177.89 519.03 183.52 528.39 189.27 537.75 194.82 547.08 200.45 556.3 206.12 565.47 211.52 574.46 216.97 583.19 222.44 591.74 227.65 599.94 232.91 607.66 238.24 615.07 243.33 621.88 248.53 627.99 253.86 633.65 259 638.49 264.31 642.43 269.81 645.81 275.19 648.24 280.79 649.66 286.63 650.54 292.39 650.46 298.43 649.44 304.74 648.03 311.01 645.84 317.57 642.96 324.43 640.01 331.26 636.64 338.41 632.97 345.85 629.66 353.28 626.35 361.02 623.21 369.06 620.82 377.1 618.84 385.45 617.37 394.1 616.9 402.76 617.01 411.53 617.67 420.39 619.23 429.26 621.18 438.24 623.38 447.31 626.18 456.39 628.97 465.57 631.61 474.82 634.45 484.09 636.86 493.44 638.73 502.82 640.44 512.22 641.39 521.63 641.53 531.02 641.26 540.38 640.08 549.66 637.98 558.8 635.38 567.83 631.87 576.64 627.5 585.14 622.65 593.42 617.02 601.28 610.7 608.62 604.01 615.6 596.73 621.94 588.96 627.54 580.94 632.66 572.54 636.94 563.86 640.32 555.04 643.15 546.01 645.04 536.85 645.97 527.65 646.41 518.37 645.96 509.06 644.66 499.76 643.07 490.47 640.81 481.21 638 471.98 635.24 462.8 632.2 453.69 629.01 444.61 626.29 435.59 623.71 426.67 621.41 417.76 619.94 408.93 618.95 400.19 618.51 391.45 619.08 383 620.19 374.84 621.77 366.66 624.18 358.76 626.84 351.13 629.63 343.47 632.88 336.06 635.96 328.92 638.74 321.73 641.55 314.78 643.79 308.07 645.35 301.29 646.6 294.73 646.99 288.39 646.48 281.95 645.47 275.69 643.5 269.63 640.58 263.44 637.11 257.4 632.73 251.53 627.53 245.5 621.84 239.61 615.42 233.86 608.37 227.95 600.97 222.16 593.05 216.51 584.71 210.71 576.17 205.06 567.32 199.57 558.26 193.96 549.09 188.55 539.79 183.37 530.42 178.12 521.03 173.14 511.61 168.48 502.21 163.83 492.83 159.55 483.49 155.69 474.22 151.93 464.98 148.64 455.81 145.87 446.73 143.27 437.68 141.25 428.71 139.83 419.85 138.64 411 138.09 402.23 138.21 393.59 138.57 384.94 139.59 376.59 141.21 368.56 143.03 360.52 145.42 352.79 148.32 345.36 151.34 337.92 154.83 330.78 158.72 323.96 162.65 317.1 166.93 310.54 171.52 304.29 176.05 297.99 180.84 291.96 185.85 286.22 190.74 280.39 195.81 274.81 201.05 269.46 206.12 263.99 211.34 258.71 216.69 253.6 221.86 248.31 227.18 243.15 232.63 238.1 237.92 232.82 243.36 227.6 248.96 222.44 254.41 217.01 260.06 211.62 265.89 206.26 271.61 200.63 277.55 195.05 283.71 189.54 289.78 183.81 296.11 178.21 302.67 172.77 309.18 167.24 315.96 161.97 322.99 157.02 329.98 152.14 337.24 147.7 344.77 143.79 352.27 140.12 360.05 137.09 368.09 134.78 376.12 132.86 384.43 131.74 393.02 131.48"
            stroke-dasharray="10 4" transform="rotate(12.12, 400, 400)" opacity="0.16"></path>
        <path
            d="M397.68 142.07C405.99 142.26 414.38 143.26 422.85 145.03 431.34 147.17 439.91 150.01 448.55 153.48 457.21 157.18 465.95 161.42 474.75 166.1 483.57 170.87 492.45 175.98 501.34 181.37 510.26 186.7 519.17 192.23 528.05 197.9 536.9 203.41 545.67 209 554.28 214.66 562.81 220.09 571.12 225.57 579.13 231.08 586.94 236.36 594.36 241.69 601.29 247.07 607.91 252.23 613.93 257.49 619.26 262.84 624.17 268.02 628.31 273.34 631.6 278.82 635.37 286.93 637.76 304.07 636.49 313.17 635.06 319.26 632.95 325.63 630.24 332.27 627.52 338.87 624.42 345.76 621.08 352.94 618.09 360.1 615.11 367.55 612.27 375.31 610.12 383.05 608.32 391.09 606.95 399.44 606.49 407.79 606.53 416.25 607.04 424.8 608.37 433.36 610.03 442.02 611.93 450.76 614.38 459.51 616.84 468.34 619.18 477.22 621.74 486.12 623.95 495.06 625.7 504 627.34 512.93 628.34 521.85 628.63 530.69 628.6 539.48 627.76 548.15 626.09 556.63 624.01 564.98 621.09 573.06 617.37 580.8 613.24 588.3 608.36 595.36 602.81 601.89 596.91 608.06 590.42 613.61 583.44 618.45 576.2 622.84 568.56 626.45 560.59 629.22 552.47 631.51 544.11 632.95 535.57 633.53 526.96 633.7 518.23 633.08 509.43 631.73 500.62 630.16 491.78 628.02 482.94 625.4 474.11 622.88 465.3 620.12 456.54 617.24 447.8 614.82 439.11 612.53 430.5 610.47 421.9 609.19 413.36 608.32 404.91 607.92 396.46 608.44 388.28 609.42 380.37 610.82 372.45 612.97 364.78 615.35 357.38 617.84 349.94 620.78 342.74 623.58 335.79 626.12 328.78 628.75 322 630.88 315.44 632.42 308.8 633.75 302.37 634.31 296.13 634.08 289.79 633.44 283.62 631.92 277.62 629.55 271.5 626.7 265.53 623.01 259.7 618.53 253.73 613.62 247.88 607.99 242.17 601.74 236.32 595.15 230.58 588.03 224.99 580.47 219.26 572.68 213.68 564.55 208.27 556.16 202.76 547.65 197.45 538.96 192.37 530.15 187.24 521.29 182.38 512.36 177.84 503.42 173.33 494.47 169.18 485.53 165.43 476.64 161.8 467.76 158.62 458.93 155.95 450.18 153.46 441.45 151.51 432.8 150.15 424.24 149.02 415.7 148.5 407.25 148.63 398.91 148.99 390.57 149.98 382.53 151.56 374.79 153.34 367.05 155.66 359.6 158.48 352.44 161.43 345.27 164.82 338.39 168.62 331.8 172.45 325.17 176.64 318.81 181.13 312.74 185.57 306.6 190.28 300.72 195.2 295.07 200.02 289.35 205.03 283.83 210.21 278.51 215.23 273.06 220.4 267.78 225.71 262.64 230.85 257.32 236.13 252.11 241.53 246.99 246.78 241.65 252.17 236.37 257.7 231.14 263.1 225.67 268.66 220.23 274.39 214.84 280.02 209.23 285.83 203.66 291.85 198.19 297.78 192.55 303.94 187.04 310.31 181.72 316.63 176.34 323.19 171.23 330 166.45 336.76 161.76 343.77 157.5 351.04 153.77 358.29 150.27 365.8 147.39 373.57 145.2 381.33 143.37 389.36 142.31 397.67 142.07"
            stroke-dasharray="4 10" transform="rotate(16.16, 400, 400)" opacity="0.20"></path>
        <path
            d="M402.43 152.66C410.45 152.83 418.55 153.78 426.72 155.45 434.91 157.47 443.17 160.16 451.48 163.45 459.81 166.97 468.2 171.01 476.63 175.49 485.06 180.07 493.53 185 501.98 190.21 510.43 195.4 518.84 200.8 527.17 206.36 535.46 211.79 543.62 217.33 551.59 222.94 559.45 228.37 567.06 233.85 574.33 239.38 581.4 244.7 588.05 250.08 594.21 255.5 600.06 260.72 605.33 266.02 609.94 271.41 614.17 276.62 617.66 281.96 620.38 287.43 623.42 295.52 624.93 312.45 623.52 321.37 622.11 327.33 620.11 333.53 617.59 339.98 615.1 346.38 612.29 353.05 609.27 359.99 606.58 366.9 603.91 374.1 601.36 381.56 599.43 389.02 597.8 396.77 596.54 404.8 596.08 412.83 596.05 420.97 596.43 429.18 597.54 437.41 598.95 445.71 600.55 454.08 602.68 462.46 604.82 470.89 606.86 479.35 609.14 487.81 611.13 496.29 612.72 504.73 614.28 513.15 615.28 521.5 615.66 529.75 615.8 537.92 615.23 545.94 613.92 553.72 612.27 561.36 609.87 568.7 606.73 575.66 603.23 582.4 599.04 588.68 594.2 594.42 589.05 599.84 583.32 604.64 577.09 608.77 570.62 612.5 563.73 615.5 556.48 617.73 549.08 619.56 541.4 620.62 533.51 620.91 525.53 620.88 517.39 620.16 509.15 618.79 500.87 617.28 492.52 615.28 484.15 612.87 475.77 610.59 467.38 608.11 459.01 605.54 450.66 603.4 442.33 601.38 434.05 599.56 425.78 598.45 417.56 597.69 409.41 597.33 401.26 597.8 393.35 598.67 385.7 599.89 378.03 601.8 370.6 603.91 363.41 606.11 356.19 608.75 349.19 611.27 342.4 613.57 335.57 616 328.95 618 322.51 619.49 316.01 620.84 309.69 621.52 303.54 621.5 297.31 621.16 291.22 620.03 285.29 618.13 279.24 615.83 273.33 612.75 267.55 608.95 261.64 604.74 255.85 599.87 250.19 594.38 244.41 588.57 238.74 582.23 233.22 575.44 227.58 568.42 222.09 561.03 216.78 553.35 211.38 545.53 206.19 537.48 201.22 529.28 196.24 521.01 191.52 512.64 187.11 504.2 182.74 495.75 178.73 487.27 175.12 478.8 171.63 470.34 168.57 461.91 166.01 453.53 163.62 445.16 161.76 436.86 160.47 428.64 159.4 420.43 158.91 412.3 159.04 404.28 159.41 396.25 160.37 388.51 161.9 381.06 163.62 373.6 165.87 366.41 168.6 359.51 171.46 352.58 174.76 345.92 178.44 339.53 182.17 333.1 186.25 326.91 190.62 320.97 194.97 314.97 199.58 309.19 204.41 303.63 209.15 297.97 214.08 292.49 219.17 287.18 224.14 281.75 229.26 276.44 234.5 271.27 239.6 265.92 244.84 260.66 250.19 255.48 255.4 250.1 260.74 244.77 266.21 239.49 271.55 234 277.05 228.56 282.7 223.17 288.23 217.59 293.95 212.08 299.84 206.68 305.65 201.14 311.66 195.76 317.88 190.58 324.03 185.37 330.4 180.44 337 175.85 343.55 171.35 350.35 167.29 357.38 163.73 364.38 160.41 371.64 157.68 379.15 155.61 386.64 153.89 394.4 152.89 402.42 152.66"
            stroke-dasharray="1 2" transform="rotate(20.200000000000003, 400, 400)" opacity="0.24"></path>
        <path
            d="M407.07 163.25C414.79 163.4 422.59 164.29 430.43 165.87 438.29 167.77 446.21 170.3 454.16 173.4 462.12 176.74 470.12 180.57 478.12 184.84 486.12 189.22 494.12 193.95 502.08 198.97 510.02 203.99 517.88 209.23 525.63 214.65 533.32 219.97 540.84 225.42 548.14 230.96 555.32 236.35 562.21 241.81 568.75 247.33 575.08 252.66 581 258.05 586.42 263.49 591.55 268.75 596.13 274.09 600.07 279.49 605.14 287.42 611.24 303.64 612.23 312.01 612.33 317.55 611.77 323.27 610.57 329.18 609.22 335.03 607.34 341.08 605.03 347.36 602.77 353.59 600.24 360.07 597.53 366.78 595.14 373.47 592.76 380.41 590.47 387.6 588.75 394.78 587.28 402.23 586.12 409.94 585.67 417.65 585.59 425.44 585.84 433.3 586.76 441.16 587.92 449.08 589.26 457.04 591.07 465.01 592.91 473 594.66 480.99 596.67 488.97 598.42 496.93 599.85 504.82 601.28 512.68 602.24 520.44 602.66 528.05 602.91 535.58 602.54 542.91 601.53 549.98 600.24 556.9 598.27 563.5 595.64 569.71 592.7 575.7 589.12 581.23 584.93 586.23 580.46 590.94 575.44 595.06 569.93 598.54 564.2 601.68 558.03 604.15 551.5 605.92 544.81 607.36 537.82 608.11 530.59 608.18 523.26 608 515.74 607.22 508.07 605.88 500.37 604.46 492.55 602.61 484.68 600.42 476.79 598.39 468.85 596.18 460.91 593.9 452.97 592.04 445.03 590.27 437.12 588.68 429.21 587.72 421.33 587.06 413.49 586.75 405.65 587.17 398.03 587.93 390.64 588.99 383.23 590.67 376.04 592.52 369.06 594.45 362.05 596.79 355.24 599.04 348.62 601.11 341.96 603.32 335.48 605.17 329.18 606.58 322.81 607.91 316.6 608.66 310.55 608.8 304.41 608.68 298.41 607.88 292.54 606.38 286.58 604.55 280.74 602.02 275.02 598.81 269.19 595.25 263.48 591.06 257.89 586.29 252.19 581.22 246.61 575.63 241.18 569.59 235.65 563.33 230.27 556.68 225.07 549.71 219.82 542.6 214.76 535.23 209.94 527.67 205.11 520.03 200.55 512.25 196.29 504.37 192.09 496.46 188.23 488.49 184.77 480.5 181.42 472.5 178.5 464.5 176.05 456.54 173.78 448.57 172.01 440.65 170.79 432.79 169.77 424.94 169.32 417.15 169.46 409.45 169.82 401.75 170.76 394.31 172.23 387.13 173.9 379.94 176.06 373.01 178.7 366.34 181.46 359.64 184.64 353.18 188.2 346.96 191.81 340.7 195.77 334.66 200.01 328.83 204.25 322.95 208.74 317.25 213.45 311.74 218.1 306.13 222.93 300.68 227.93 295.38 232.83 289.95 237.87 284.63 243.05 279.42 248.09 274.05 253.27 268.76 258.56 263.53 263.72 258.13 269.01 252.78 274.42 247.49 279.71 242.01 285.14 236.59 290.7 231.23 296.17 225.72 301.79 220.3 307.57 215 313.27 209.6 319.15 204.37 325.22 199.35 331.22 194.33 337.43 189.59 343.83 185.2 350.2 180.92 356.79 177.06 363.59 173.69 370.37 170.55 377.38 167.97 384.63 166.03 391.86 164.4 399.34 163.46 407.06 163.25"
            stroke-dasharray="10 7" transform="rotate(24.24, 400, 400)" opacity="0.28"></path>
        <path
            d="M411.4 173.83C418.81 173.98 426.27 174.81 433.77 176.28 441.27 178.06 448.81 180.44 456.36 183.36 463.92 186.5 471.49 190.12 479.03 194.17 486.56 198.33 494.06 202.85 501.48 207.65 508.88 212.48 516.16 217.54 523.3 222.79 530.36 227.98 537.23 233.3 543.85 238.74 550.35 244.05 556.54 249.45 562.36 254.91 568 260.23 573.21 265.6 577.93 271.03 582.4 276.31 586.34 281.65 589.69 287.06 593.95 295.01 598.86 311.2 599.48 319.5 599.45 325 598.83 330.65 597.66 336.45 596.38 342.2 594.65 348.13 592.55 354.25 590.53 360.33 588.27 366.61 585.86 373.11 583.75 379.58 581.65 386.27 579.61 393.19 578.09 400.1 576.77 407.24 575.7 414.62 575.27 421.99 575.13 429.42 575.28 436.89 576.02 444.37 576.95 451.88 578.04 459.4 579.57 466.92 581.11 474.44 582.59 481.92 584.31 489.39 585.83 496.8 587.07 504.11 588.36 511.38 589.24 518.52 589.67 525.47 589.98 532.34 589.75 538.98 588.96 545.34 587.15 554.5 580.16 570.6 575.04 577.33 569.01 583.14 554.19 591.43 545.61 593.82 539.62 594.93 533.31 595.44 526.73 595.35 520.06 595.08 513.16 594.28 506.09 593 498.98 591.69 491.72 590.02 484.37 588.06 477 586.27 469.55 584.34 462.06 582.34 454.57 580.72 447.05 579.19 439.52 577.81 432 577 424.48 576.44 416.97 576.16 409.46 576.54 402.15 577.2 395.02 578.1 387.89 579.57 380.94 581.18 374.17 582.86 367.39 584.92 360.77 586.9 354.32 588.72 347.84 590.71 341.51 592.39 335.34 593.7 329.11 594.97 323.02 595.75 317.06 595.99 311.04 596.05 305.13 595.5 299.35 594.34 293.49 592.9 287.73 590.83 282.09 588.15 276.36 585.18 270.74 581.61 265.24 577.49 259.66 573.12 254.19 568.23 248.87 562.91 243.48 557.37 238.24 551.44 233.18 545.18 228.08 538.78 223.18 532.1 218.52 525.2 213.87 518.21 209.47 511.04 205.39 503.76 201.36 496.42 197.67 488.99 194.37 481.51 191.18 474.02 188.4 466.49 186.08 458.97 183.92 451.44 182.25 443.93 181.1 436.45 180.15 428.98 179.73 421.55 179.88 414.18 180.23 406.82 181.14 399.68 182.56 392.78 184.15 385.87 186.23 379.18 188.76 372.72 191.41 366.24 194.47 359.97 197.89 353.91 201.38 347.81 205.2 341.9 209.3 336.18 213.41 330.39 217.77 324.77 222.34 319.3 226.88 313.75 231.6 308.33 236.49 303.03 241.29 297.61 246.25 292.29 251.33 287.06 256.31 281.68 261.41 276.38 266.63 271.14 271.73 265.75 276.95 260.41 282.29 255.13 287.52 249.7 292.88 244.33 298.36 239.04 303.74 233.64 309.27 228.33 314.95 223.16 320.54 217.93 326.3 212.87 332.22 208.05 338.09 203.23 344.13 198.71 350.36 194.53 356.54 190.47 362.93 186.82 369.51 183.64 376.07 180.68 382.84 178.26 389.82 176.44 396.79 174.91 403.98 174.03 411.39 173.83"
            stroke-dasharray="2 9" transform="rotate(28.28, 400, 400)" opacity="0.32"></path>
        <path
            d="M415.22 184.42C422.3 184.55 429.41 185.32 436.53 186.7 443.66 188.35 450.8 190.57 457.92 193.31 465.05 196.25 472.15 199.66 479.2 203.47 486.24 207.41 493.21 211.69 500.07 216.27 506.89 220.89 513.58 225.74 520.1 230.79 526.53 235.81 532.75 240.98 538.7 246.27 544.53 251.47 550.04 256.77 555.18 262.15 560.15 267.41 564.71 272.73 568.8 278.11 572.66 283.37 576.02 288.69 578.84 294.07 582.41 302 586.32 318.11 586.68 326.34 586.23 334.57 582.84 351.61 580.17 360.47 578.39 366.4 576.4 372.5 574.27 378.78 572.43 385.04 570.58 391.49 568.79 398.13 567.45 404.76 566.27 411.59 565.29 418.62 564.87 425.64 564.69 432.7 564.74 439.77 565.31 446.84 566.05 453.91 566.9 460.97 568.16 468.02 569.43 475.03 570.64 481.99 572.1 488.91 573.38 495.76 574.43 502.47 575.55 509.13 576.33 515.64 576.72 521.94 576.97 531.13 574.82 547.91 572.32 555.3 568.98 561.99 559.41 572.72 553.28 576.62 546.45 579.61 530.68 582.51 521.92 582.47 515.89 582.15 509.62 581.38 503.15 580.19 496.63 579.02 489.94 577.53 483.13 575.8 476.29 574.24 469.34 572.57 462.33 570.84 455.31 569.47 448.23 568.16 441.11 566.97 433.99 566.29 426.85 565.82 419.69 565.57 412.54 565.91 405.53 566.47 398.69 567.24 391.85 568.51 385.15 569.89 378.62 571.33 372.06 573.12 365.65 574.85 359.38 576.44 353.09 578.2 346.92 579.7 340.89 580.88 334.82 582.07 328.86 582.83 323.02 583.13 314.23 583.12 297.09 580.1 288.74 577.04 283.13 574.57 277.63 571.55 272.25 568.03 266.8 564.28 261.48 560.05 256.3 555.39 251.06 550.54 245.99 545.31 241.09 539.73 236.17 534.02 231.46 528.02 226.97 521.78 222.51 515.44 218.31 508.91 214.41 502.22 210.57 495.48 207.07 488.62 203.93 481.68 200.91 474.71 198.28 467.68 196.09 460.62 194.06 453.56 192.49 446.48 191.41 439.41 190.52 432.34 190.14 425.28 190.29 418.26 190.64 411.24 191.51 404.41 192.87 397.79 194.39 391.16 196.38 384.72 198.79 378.47 201.33 372.21 204.25 366.12 207.53 360.21 210.87 354.27 214.54 348.49 218.48 342.86 222.44 337.18 226.65 331.63 231.08 326.22 235.48 320.72 240.07 315.34 244.82 310.05 249.51 304.67 254.36 299.36 259.33 294.14 264.21 288.79 269.22 283.51 274.34 278.29 279.37 272.94 284.51 267.64 289.76 262.42 294.92 257.07 300.19 251.79 305.57 246.62 310.88 241.34 316.31 236.19 321.87 231.19 327.36 226.14 332.99 221.29 338.77 216.67 344.49 212.09 350.38 207.79 356.42 203.83 362.43 200 368.61 196.56 374.97 193.58 381.3 190.81 387.83 188.55 394.53 186.85 401.23 185.43 408.12 184.6 415.21 184.42"
            stroke-dasharray="8 2" transform="rotate(32.32, 400, 400)" opacity="0.35"></path>
        <path
            d="M418.36 195.01C425.09 195.13 431.84 195.84 438.56 197.12 445.29 198.65 452 200.71 458.67 203.26 465.34 206 471.96 209.19 478.5 212.76 485.02 216.46 491.44 220.5 497.74 224.83 503.98 229.22 510.07 233.84 515.97 238.67 521.78 243.49 527.36 248.47 532.66 253.59 537.85 258.64 542.72 263.8 547.23 269.05 551.58 274.21 555.53 279.45 559.05 284.74 563.8 292.57 570.56 308.38 572.51 316.38 573.67 324.33 573.35 340.57 572.01 348.9 570.95 354.44 569.56 360.11 567.89 365.91 566.34 371.67 564.61 377.59 562.75 383.64 561.16 389.68 559.55 395.88 557.98 402.23 556.81 408.58 555.77 415.09 554.87 421.75 554.47 428.42 554.25 435.08 554.22 441.73 554.64 448.38 555.2 455 555.84 461.57 556.85 468.14 557.86 474.64 558.82 481.04 560.02 487.42 561.07 493.69 561.92 499.8 563.19 508.8 564.09 525.62 563.52 533.28 562.34 540.44 557.42 552.67 553.67 557.61 549.22 561.8 537.94 567.49 531.23 568.97 523.99 569.73 507.9 568.89 499.19 567.46 493.26 566.43 487.14 565.14 480.87 563.63 474.57 562.31 468.14 560.89 461.62 559.41 455.08 558.26 448.45 557.16 441.76 556.15 435.07 555.59 428.32 555.2 421.54 554.98 414.75 555.28 408.08 555.76 401.54 556.4 395 557.49 388.58 558.66 382.29 559.87 375.98 561.41 369.79 562.88 363.73 564.24 357.64 565.78 351.66 567.09 345.79 568.14 336.99 569.57 319.82 570.37 311.46 569.56 303.1 568.03 286.82 562.21 278.92 557.95 273.64 554.76 268.48 551.12 263.46 547.07 258.42 542.86 253.53 538.27 248.82 533.35 244.11 528.3 239.6 522.95 235.31 517.35 231.06 511.66 227.07 505.75 223.37 499.66 219.74 493.53 216.42 487.24 213.46 480.84 210.62 474.42 208.15 467.9 206.09 461.33 204.19 454.75 202.73 448.12 201.72 441.47 200.9 434.82 200.56 428.15 200.71 421.49 201.05 414.83 201.88 408.32 203.17 401.98 204.62 395.64 206.51 389.45 208.8 383.43 211.2 377.38 213.99 371.49 217.1 365.74 220.3 359.96 223.8 354.31 227.57 348.8 231.37 343.23 235.41 337.77 239.67 332.42 243.91 327 248.35 321.67 252.95 316.43 257.5 311.1 262.21 305.85 267.04 300.66 271.81 295.37 276.71 290.14 281.71 284.98 286.64 279.71 291.67 274.5 296.81 269.37 301.87 264.14 307.04 259 312.32 253.96 317.52 248.86 322.84 243.89 328.27 239.08 333.64 234.26 339.14 229.63 344.76 225.24 350.34 220.9 356.06 216.84 361.91 213.12 367.73 209.52 373.71 206.31 379.83 203.53 385.93 200.94 392.2 198.84 398.62 197.26 405.03 195.94 411.61 195.18 418.35 195.01"
            stroke-dasharray="2 7" transform="rotate(36.36, 400, 400)" opacity="0.39"></path>
        <path
            d="M420.68 205.6C427.05 205.7 433.41 206.36 439.72 207.54 446.03 208.95 452.3 210.85 458.51 213.21 470.89 218.47 482.95 225.3 494.43 233.35 505.74 241.66 516.28 250.87 525.77 260.7 534.83 270.39 542.58 280.52 548.76 290.93 554.29 301.02 558.09 311.4 560.04 322 561.43 332.31 561.14 342.95 559.31 353.9 557.5 364.68 554.72 375.91 551.31 387.57 549.95 393.38 548.57 399.31 547.2 405.36 546.19 411.41 545.27 417.59 544.45 423.88 544.07 430.17 543.82 436.44 543.72 442.65 544.01 448.86 544.4 455.02 544.86 461.1 546.72 473.23 548.4 484.96 549.57 496.06 551.17 506.94 551.64 516.98 550.77 525.88 549.61 534.34 546.8 541.42 542.36 546.9 537.39 551.77 530.81 554.93 522.83 556.32 514.42 557.28 504.81 556.72 494.24 554.82 483.46 553.17 471.93 550.8 459.87 548.04 453.82 547.1 447.66 546.19 441.41 545.35 435.16 544.9 428.82 544.58 422.42 544.4 416.02 544.66 409.7 545.06 403.49 545.59 397.27 546.5 391.14 547.48 385.11 548.48 373.03 551.34 361.3 553.79 349.98 555.48 338.55 557.4 327.43 557.94 316.72 556.94 305.84 555.5 295.31 552.26 285.24 547.32 275.06 541.76 265.38 534.59 256.38 526.05 247.44 517.08 239.32 506.97 232.27 496.04 225.53 484.9 220.06 473.13 216.09 460.98 214.32 454.88 212.96 448.72 212.04 442.5 211.28 436.28 210.97 430.02 211.13 423.72 211.46 417.43 212.25 411.26 213.47 405.22 214.84 399.17 216.62 393.25 218.78 387.46 223.43 375.82 229.45 364.63 236.56 353.89 243.83 342.98 252 332.38 260.86 322.13 269.61 311.59 278.94 301.26 288.71 291.22 298.24 280.85 308.21 270.76 318.54 261.11 328.64 251.29 339.18 242.08 350.12 233.76 360.91 225.68 372.2 218.8 383.96 213.47 389.82 211.08 395.81 209.13 401.93 207.68 408.04 206.45 414.29 205.75 420.67 205.6"
            stroke-dasharray="5 5" transform="rotate(40.400000000000006, 400, 400)" opacity="0.43"></path>
        <path
            d="M422.08 216.18C434.07 216.6 445.87 219.01 457.33 223.17 468.76 228.01 479.76 234.34 490.13 241.84 500.32 249.63 509.71 258.32 518.05 267.64 526.02 276.91 532.73 286.65 537.99 296.7 542.73 306.52 545.91 316.63 547.47 326.94 548.63 337.03 548.34 347.41 546.72 358.02 545.21 368.5 542.86 379.34 539.94 390.48 537.91 401.59 535.87 413.08 534.04 424.9 533.68 436.72 533.68 448.29 533.94 459.48 535.37 470.62 536.6 481.27 537.39 491.22 538.63 500.98 538.91 509.86 538.05 517.62 537.05 525.01 534.61 531.1 530.74 535.72 526.48 539.87 520.76 542.51 513.73 543.6 506.36 544.41 497.82 543.93 488.32 542.3 478.64 540.98 468.16 539.04 457.07 536.75 445.94 535.54 434.3 534.51 422.3 533.81 410.31 534.66 398.53 535.83 387.06 537.16 375.57 539.55 364.35 541.57 353.46 542.94 342.49 544.59 331.8 545.07 321.47 544.24 311.02 543.11 300.91 540.42 291.26 536.21 281.55 531.52 272.33 525.35 263.8 517.9 255.36 510.06 247.73 501.12 241.12 491.32 234.84 481.32 229.75 470.64 226.08 459.47 222.96 448.26 221.39 436.67 221.54 424.86 222.34 413.04 224.81 401.56 228.74 390.48 233.11 379.35 238.77 368.55 245.48 358.11 252.37 347.53 260.13 337.2 268.58 327.16 276.97 316.89 285.94 306.82 295.35 297.04 304.58 287.03 314.23 277.32 324.22 268.07 334.03 258.75 344.24 250.06 354.78 242.25 365.21 234.71 376.05 228.33 387.28 223.42 398.45 219.19 410.08 216.7 422.07 216.18"
            stroke-dasharray="10 7" transform="rotate(44.44, 400, 400)" opacity="0.47"></path>
        <path
            d="M422.49 226.77C433.69 227.14 444.62 229.33 455.12 233.13 465.59 237.56 475.56 243.38 484.85 250.31 493.99 257.55 502.3 265.67 509.58 274.44 516.56 283.22 522.36 292.49 526.83 302.09 530.9 311.54 533.6 321.29 534.87 331.23 535.87 341.01 535.63 351.04 534.26 361.25 533.05 371.36 531.11 381.74 528.65 392.34 526.99 402.9 525.26 413.74 523.62 424.76 523.25 435.79 523.09 446.48 523.11 456.7 524.13 466.86 524.96 476.47 525.39 485.34 526.27 494.03 526.34 501.85 525.44 508.59 523.42 517.65 512.73 528.85 504.05 530.86 497.59 531.61 490.03 531.24 481.53 529.91 472.87 528.92 463.4 527.38 453.27 525.52 443.1 524.62 432.36 523.82 421.19 523.22 410.02 523.96 398.96 524.89 388.13 525.9 377.28 527.86 366.62 529.47 356.23 530.52 345.79 531.89 335.59 532.26 325.72 531.51 315.78 530.59 306.16 528.32 296.99 524.71 287.8 520.75 279.12 515.45 271.1 508.96 263.2 502.16 256.08 494.29 249.95 485.55 244.13 476.64 239.44 467 236.07 456.81 233.21 446.57 231.79 435.87 231.96 424.84 232.72 413.81 235.02 402.98 238.68 392.44 242.76 381.86 248.04 371.51 254.33 361.43 260.8 351.25 268.13 341.26 276.11 331.52 284.1 321.61 292.65 311.9 301.63 302.48 310.5 292.9 319.78 283.65 329.36 274.88 338.82 266.11 348.63 257.98 358.72 250.71 368.73 243.74 379.08 237.87 389.72 233.37 400.34 229.5 411.29 227.23 422.49 226.77"
            stroke-dasharray="2 7" transform="rotate(48.48, 400, 400)" opacity="0.51"></path>
        <path
            d="M421.9 237.36C432.29 237.68 442.33 239.66 451.89 243.11 461.41 247.13 470.38 252.43 478.65 258.79 486.79 265.45 494.11 272.97 500.45 281.13 506.54 289.35 511.55 298.08 515.36 307.15 518.88 316.15 521.19 325.45 522.27 334.93 523.19 344.3 523.05 353.9 521.93 363.63 521.02 373.29 519.47 383.16 517.43 393.15 516.1 403.12 514.66 413.26 513.2 423.48 512.82 433.7 512.55 443.5 512.34 452.77 513.01 462 513.47 470.61 513.57 478.47 514.03 489.62 511.05 506.76 506.99 512.35 501.55 516.4 484.89 518.79 473.97 517.66 466.25 516.98 457.73 515.83 448.54 514.36 439.3 513.74 429.46 513.14 419.14 512.63 408.81 513.26 398.51 513.99 388.36 514.72 378.2 516.28 368.16 517.5 358.34 518.24 348.51 519.31 338.86 519.53 329.52 518.8 320.16 518 311.1 516.04 302.47 512.92 293.87 509.55 285.76 504.99 278.29 499.34 270.97 493.45 264.4 486.55 258.75 478.79 253.42 470.89 249.13 462.24 246.07 453 243.47 443.71 242.19 433.89 242.37 423.67 243.09 413.45 245.22 403.31 248.61 393.35 252.38 383.38 257.27 373.53 263.11 363.9 269.14 354.19 275.99 344.62 283.48 335.28 291.01 325.82 299.09 316.55 307.58 307.58 316.02 298.52 324.85 289.8 333.97 281.58 343 273.41 352.35 265.87 361.93 259.17 371.46 252.78 381.26 247.42 391.28 243.34 401.27 239.82 411.51 237.77 421.9 237.36"
            stroke-dasharray="7 5" transform="rotate(52.52, 400, 400)" opacity="0.54"></path>
        <path
            d="M420.34 247.95C429.89 248.23 439.04 250 447.68 253.1 456.27 256.71 464.3 261.5 471.62 267.27 478.83 273.33 485.25 280.22 490.76 287.73 496.08 295.35 500.42 303.47 503.69 311.94 506.76 320.39 508.78 329.14 509.74 338.08 510.63 346.96 510.61 356.03 509.76 365.21 509.13 374.34 507.93 383.62 506.29 392.96 505.26 402.29 504.07 411.71 502.79 421.11 502.4 430.51 502.03 439.44 501.65 447.8 502.01 456.12 502.14 463.81 501.95 470.75 501.97 480.58 498.78 495.51 495.05 500.34 490.21 503.93 475.48 506.31 465.77 505.57 458.92 505.19 451.28 504.38 442.99 503.27 434.65 502.89 425.7 502.47 416.23 502.05 406.76 502.58 397.25 503.12 387.82 503.6 378.39 504.79 369.04 505.67 359.86 506.11 350.68 506.88 341.67 506.94 332.93 506.18 324.21 505.43 315.77 503.69 307.75 500.94 299.78 498.04 292.29 494.09 285.42 489.16 278.7 484.05 272.69 478.01 267.55 471.15 262.7 464.18 258.82 456.46 256.07 448.13 253.73 439.75 252.59 430.81 252.79 421.41 253.46 412 255.42 402.58 258.52 393.27 261.98 383.94 266.47 374.67 271.84 365.56 277.41 356.4 283.76 347.34 290.71 338.49 297.72 329.57 305.28 320.83 313.23 312.39 321.17 303.93 329.49 295.81 338.07 288.18 346.61 280.66 355.42 273.74 364.43 267.64 373.41 261.83 382.61 256.99 391.95 253.32 401.28 250.15 410.78 248.3 420.34 247.95"
            stroke-dasharray="3 6" transform="rotate(56.56, 400, 400)" opacity="0.58"></path>
        <path
            d="M417.87 258.53C426.58 258.77 434.84 260.34 442.59 263.1 450.29 266.31 457.42 270.59 463.88 275.77 470.24 281.23 475.86 287.47 480.64 294.3 485.28 301.25 489.06 308.71 491.9 316.52 494.61 324.35 496.41 332.48 497.32 340.79 498.22 349.08 498.34 357.55 497.74 366.09 497.38 374.62 496.51 383.25 495.22 391.89 494.45 400.53 493.49 409.18 492.37 417.76 491.99 426.34 491.54 434.41 491.02 441.9 491.11 449.36 490.97 456.19 490.52 462.3 490.15 470.96 486.69 484.01 483.19 488.25 478.82 491.5 465.73 493.99 457.1 493.64 451.02 493.53 444.22 493.04 436.77 492.25 429.28 492.07 421.2 491.8 412.6 491.46 403.99 491.91 395.3 492.28 386.63 492.54 377.98 493.42 369.36 493.98 360.88 494.14 352.42 494.63 344.1 494.5 336.03 493.68 328 492.92 320.24 491.32 312.88 488.87 305.59 486.33 298.76 482.88 292.5 478.56 286.41 474.12 280.98 468.83 276.36 462.78 272 456.64 268.53 449.79 266.08 442.31 263.99 434.81 263 426.73 263.21 418.15 263.82 409.57 265.61 400.91 268.43 392.28 271.56 383.65 275.65 375.03 280.54 366.51 285.63 357.97 291.43 349.52 297.81 341.24 304.28 332.94 311.26 324.82 318.62 316.99 326 309.18 333.74 301.72 341.72 294.75 349.69 287.89 357.91 281.63 366.28 276.13 374.65 270.91 383.19 266.57 391.81 263.31 400.44 260.48 409.16 258.84 417.87 258.53"
            stroke-dasharray="4 2" transform="rotate(60.599999999999994, 400, 400)" opacity="0.62"></path>
        <path
            d="M414.6 269.12C422.46 269.32 429.86 270.69 436.75 273.13 443.61 275.94 449.91 279.72 455.56 284.31 461.15 289.16 466.06 294.73 470.22 300.86 474.29 307.13 477.59 313.87 480.09 320.96 482.51 328.1 484.17 335.54 485.06 343.15 485.98 350.77 486.25 358.56 485.9 366.41 485.77 374.26 485.19 382.18 484.22 390.07 483.68 397.97 482.92 405.85 481.95 413.6 481.59 421.34 481.08 428.58 480.45 435.25 480.15 444.92 478.57 460.94 476.89 467.1 471.18 475.81 455.8 481.88 448.14 481.89 442.76 482.02 436.71 481.8 430.06 481.29 423.39 481.29 416.15 481.15 408.4 480.87 400.65 481.24 392.79 481.47 384.93 481.55 377.08 482.14 369.24 482.43 361.52 482.35 353.82 482.57 346.24 482.26 338.9 481.36 331.61 480.56 324.57 479.04 317.91 476.81 311.34 474.54 305.19 471.49 299.58 467.68 294.14 463.81 289.29 459.17 285.19 453.84 281.32 448.45 278.25 442.39 276.1 435.73 274.27 429.05 273.41 421.8 273.62 414.05 274.19 406.29 275.79 398.41 278.33 390.52 281.14 382.63 284.81 374.71 289.21 366.87 293.8 359.03 299.05 351.25 304.83 343.63 310.71 336.02 317.07 328.58 323.8 321.44 330.56 314.34 337.65 307.58 344.98 301.3 352.31 295.14 359.87 289.55 367.56 284.65 375.25 280.02 383.08 276.19 390.94 273.32 398.82 270.83 406.74 269.39 414.6 269.12"
            stroke-dasharray="7 4" transform="rotate(64.64, 400, 400)" opacity="0.66"></path>
        <path
            d="M410.68 279.71C417.69 279.87 424.26 281.06 430.33 283.17 436.38 285.6 441.9 288.89 446.84 292.91 451.73 297.15 456.02 302.05 459.64 307.46 463.21 313.01 466.12 319.01 468.35 325.35 470.54 331.74 472.09 338.43 472.99 345.28 473.95 352.16 474.36 359.2 474.24 366.3 474.32 373.4 473.99 380.56 473.29 387.67 472.95 394.79 472.36 401.87 471.54 408.79 471.19 415.71 470.65 422.15 469.95 428.05 469.39 436.59 467.26 450.67 465.41 456.1 459.84 463.96 445.86 469.98 439.06 470.32 434.3 470.65 428.95 470.67 423.06 470.39 417.16 470.54 410.73 470.5 403.83 470.28 396.93 470.58 389.91 470.7 382.88 470.63 375.86 470.98 368.83 471.03 361.9 470.74 355 470.72 348.22 470.23 341.65 469.25 335.13 468.39 328.86 466.92 322.93 464.85 317.09 462.79 311.65 460.06 306.7 456.69 299.77 451.25 289.33 437.13 286.14 428.58 284.55 422.67 283.82 416.23 284.04 409.3 284.55 402.37 285.98 395.29 288.23 388.17 290.71 381.06 293.97 373.9 297.87 366.8 301.95 359.7 306.63 352.66 311.79 345.78 317.06 338.92 322.77 332.23 328.81 325.82 334.91 319.48 341.32 313.46 347.94 307.88 354.58 302.44 361.42 297.51 368.37 293.23 375.33 289.17 382.4 285.83 389.48 283.35 396.57 281.18 403.67 279.93 410.68 279.71"
            stroke-dasharray="10 9" transform="rotate(68.68, 400, 400)" opacity="0.70"></path>
        <path
            d="M406.28 290.3C418.61 290.85 429.28 294.88 437.89 301.57 446.38 309.05 452.75 318.74 456.77 329.75 460.79 341.04 462.76 353.37 462.77 365.93 463.45 378.57 462.87 391.36 461.12 403.58 460.84 415.79 459.6 426.19 457.47 434.46 456.26 442.67 453.48 448.74 449.02 452.55 444.77 456.51 438.4 458.59 430.05 458.94 421.64 460.19 411.22 460.42 399.09 459.7 386.97 460.57 374.41 460.46 362.18 459.32 350.07 459.06 338.42 457.03 327.99 453.11 317.9 449.32 309.3 443.25 302.96 435.04 297.33 426.75 294.27 416.34 294.46 404.11 295.6 391.89 299.87 379.09 306.54 366.45 313.79 353.87 323.11 341.53 333.73 330.21 344.57 319.16 356.51 309.42 368.83 301.87 381.23 295.09 393.95 290.96 406.28 290.3"
            stroke-dasharray="3 2" transform="rotate(72.72, 400, 400)" opacity="0.73"></path>
        <path
            d="M401.61 300.88C412.28 301.31 421.47 304.68 428.89 310.32 436.24 316.6 441.81 324.83 445.43 334.26 449.13 343.96 451.13 354.6 451.48 365.5 452.38 376.48 452.12 387.6 450.7 398.2 450.38 408.8 449.06 417.82 446.86 425.02 443.97 434.9 431.49 445.96 421.29 447.76 413.93 449.19 404.88 449.65 394.39 449.11 383.9 449.78 373.05 449.43 362.5 448.09 352.07 447.47 342.06 445.35 333.16 441.66 324.55 438.15 317.26 432.75 311.94 425.58 307.19 418.37 304.65 409.35 304.87 398.74 305.85 388.13 309.5 377 315.22 366.01 321.42 355.1 329.44 344.43 338.61 334.69 348 325.23 358.38 316.94 369.09 310.59 379.88 304.87 390.93 301.41 401.61 300.88"
            stroke-dasharray="11 4" transform="rotate(76.76, 400, 400)" opacity="0.77"></path>
        <path
            d="M396.86 311.47C405.9 311.79 413.7 314.53 420.02 319.17 426.31 324.3 431.15 331.1 434.42 338.95 437.79 347.03 439.78 355.98 440.38 365.18 441.43 374.46 441.41 383.89 440.29 392.91 439.95 401.92 438.62 409.62 436.45 415.83 433.43 424.44 421.86 434.7 412.94 436.77 406.57 438.29 398.83 438.91 389.94 438.52 381.04 439.01 371.89 438.5 363.03 437.06 354.26 436.17 345.9 434.02 338.5 430.59 331.35 427.33 325.34 422.56 321 416.36 317.1 410.15 315.04 402.45 315.29 393.43 316.11 384.4 319.16 374.96 323.94 365.66 329.1 356.44 335.82 347.47 343.54 339.35 351.44 331.46 360.21 324.61 369.29 319.4 378.44 314.69 387.81 311.87 396.86 311.47"
            stroke-dasharray="9 10" transform="rotate(80.80000000000001, 400, 400)" opacity="0.81"></path>
        <path
            d="M392.25 322.06C399.7 322.28 406.16 324.43 411.44 328.12 416.73 332.17 420.87 337.59 423.78 343.9 426.79 350.41 428.71 357.65 429.48 365.16 430.57 372.74 430.73 380.48 429.87 387.94 428.91 398.61 423.25 414.46 418.4 419.55 412.8 423.8 396.51 427.85 385.94 427.93 378.6 428.28 371.11 427.67 363.91 426.23 356.78 425.18 350.03 423.07 344.1 419.95 338.36 416.99 333.57 412.83 330.16 407.56 327.06 402.31 325.45 395.88 325.71 388.42 326.37 380.95 328.83 373.2 332.7 365.6 336.86 358.07 342.3 350.8 348.57 344.26 355 337.91 362.16 332.44 369.6 328.33 377.09 324.58 384.8 322.35 392.25 322.06"
            stroke-dasharray="11 8" transform="rotate(84.84, 400, 400)" opacity="0.85"></path>
        <path
            d="M387.99 332.65C399.79 333.25 408.63 339.66 413.59 349.2 418.86 359.27 421.05 371.68 419.45 383.53 419.19 395.38 415.45 404.31 409.2 409.5 403.41 415.16 394.21 418.03 382.56 417.35 370.91 418.17 359.18 415.41 350.01 409.83 341.33 404.7 335.91 395.8 336.12 383.94 337.41 372.08 344.16 359.63 353.78 349.49 363.85 339.88 376.18 333.37 387.99 332.65"
            stroke-dasharray="5 6" transform="rotate(88.88, 400, 400)" opacity="0.89"></path>
        <path
            d="M384.26 343.23C393.03 343.57 399.82 348.07 403.86 354.9 408.12 362.05 410.09 371.05 409.04 379.89 408.72 388.72 405.58 395.67 400.55 399.99 395.79 404.61 388.64 407.13 379.96 406.76 371.29 407.23 362.78 404.8 356.28 400.24 350.07 395.98 346.27 389.05 346.54 380.21 347.43 371.37 352.28 362.34 359.25 355.13 366.49 348.25 375.49 343.66 384.26 343.23"
            stroke-dasharray="4 2" transform="rotate(92.92, 400, 400)" opacity="0.92"></path>
        <path
            d="M381.23 353.82C392.84 354.44 400.14 365.43 398.62 377.17 398.37 388.91 389.78 396.83 378.26 396.17 366.73 396.97 356.73 389.14 356.96 377.4 358.32 365.65 369.62 354.57 381.23 353.82"
            stroke-dasharray="3 4" transform="rotate(96.96, 400, 400)" opacity="0.96"></path>
    </g>
</svg>