<svg xmlns="http://www.w3.org/2000/svg" version="1.1" xmlns:xlink="http://www.w3.org/1999/xlink"
    xmlns:svgjs="http://svgjs.dev/svgjs" viewBox="0 0 800 800" opacity="0.35">
    <defs>
        <linearGradient x1="50%" y1="0%" x2="50%" y2="100%" id="uundulate-grad">
            <stop stop-color="#3558e3" stop-opacity="1" offset="45%"></stop>
            <stop stop-color="#0b96ae" stop-opacity="1" offset="100%"></stop>
        </linearGradient>
    </defs>
    <g stroke-width="3" stroke="url(#uundulate-grad)" fill="none">
        <path
            d="M740.6741877669629 466.02107763990716C732.7571332653956 575.9554956787733 539.8539053464759 633.7798417791912 433.17373016909096 661.4853691274906C326.4935549917059 689.1908964757898 304.24011564120656 677.9181726504986 228.6093469155146 599.0076089117447C152.9785781898226 520.0970451729906 19.611405939707083 379.63288117539 70.14604028576957 282.7146631814711C120.68067463183206 185.7964451875522 331.4822277180326 95.61132619542605 471.1755917766145 133.80016254093346C610.8689558351963 171.98899888644087 748.5912422685303 356.0866596010411 740.6741877669629 466.02107763990716C732.7571332653956 575.9554956787733 539.8539053464759 633.7798417791912 433.17373016909096 661.4853691274906 ">
        </path>
        <path
            d="M725.1889974139192 463.0201473086188C717.6318090260595 567.9575463457182 533.4969096489089 623.1535130779353 431.6658333432231 649.5996982740392C329.83475703753743 676.045883470143 308.59283765751525 665.2855561823651 236.39983114662755 589.9618362499182C164.20682463573974 514.6381163174713 36.90179657881134 380.55868704703414 85.13940209096188 288.0458425982934C133.37700760311247 195.5329981495526 334.5966719126675 109.44720274797771 467.9403376049502 145.90018289596208C601.2840032972327 182.35316304394638 732.746185801779 358.0827482715192 725.1889974139192 463.0201473086188C717.6318090260595 567.9575463457182 533.4969096489089 623.1535130779353 431.6658333432231 649.5996982740392 ">
        </path>
        <path
            d="M709.7038680960317 460.0191712009632C702.5065458218795 559.9595512362961 527.139974986498 612.5271386003122 430.1579975525117 637.7139816442207C333.17602011852523 662.9008246881292 312.9456207089803 652.6528939378645 244.19037641289674 580.9160178117245C175.43513211681318 509.17914168558457 54.192248253071796 381.4844471423112 100.13282493131044 293.37697623874857C146.07340160954902 205.2695053351859 337.7111771424586 123.28303352416219 464.7051444684421 158.00015747462345C591.6991117944256 192.7172814250847 716.9011903701838 360.0787911656304 709.7038680960317 460.0191712009632C702.5065458218795 559.9595512362961 527.139974986498 612.5271386003122 430.1579975525117 637.7139816442207 ">
        </path>
        <path
            d="M694.2185861902535 457.0182256108858C687.381130029809 551.9615866444519 520.7828877361965 601.9007946402673 428.65000917390944 625.8282955319803C336.5171306116224 649.7557964236935 317.2982511725547 640.020262210942 251.98076909127536 571.870229891109C186.66328700999594 503.720197571276 71.48254733944162 382.41023775516635 115.12609518376837 298.70814039678186C158.76964302809506 215.0060430383973 340.8255297843591 137.1188948179248 461.4697987440434 170.100162570863C582.1140677037276 203.08143032380121 701.056042350698 362.07486457731954 694.2185861902535 457.0182256108858C687.381130029809 551.9615866444519 520.7828877361965 601.9007946402673 428.65000917390944 625.8282955319803 ">
        </path>
        <path
            d="M678.7334263547879 454.01724950323023C672.255836308051 543.9635915350298 514.4259225562075 591.2744201626442 427.1421428656198 613.9425789021618C339.8583631750321 636.6107376416795 321.65100370644166 627.3875999664413 259.7712838399665 562.8244114529153C197.8915639734912 498.2612229393894 88.77296849612401 383.3359978504434 130.11948750653875 304.03927403723696C171.46600651695354 224.7425502240306 343.9400044965721 150.95472559410922 458.2345750899573 182.20013714952438C572.5291456833424 213.44554870493954 685.2110164015248 364.0709074714306 678.7334263547879 454.01724950323023C672.255836308051 543.9635915350298 514.4259225562075 591.2744201626442 427.1421428656198 613.9425789021618 ">
        </path>
        <path
            d="M663.248205484166 451.0163039131528C657.1304815511367 535.9656269431856 508.0688963410623 580.6480762025994 425.6342155221739 602.0568927899216C343.1995347032855 623.4657093772437 326.00369520517233 614.7549682395188 267.5617375535013 553.7786235322999C209.11977990183027 492.80227882508086 106.06332861765009 384.26178846329844 145.11281879415293 309.37043819527025C184.16230897065577 234.479087927242 347.05441817362885 164.79058688787183 454.9992904007148 194.30014224576394C562.9441626278008 223.809697603656 669.3659294171953 366.06698088311987 663.248205484166 451.0163039131528C657.1304815511367 535.9656269431856 508.0688963410623 580.6480762025994 425.6342155221739 602.0568927899216 ">
        </path>
        <path
            d="M647.7631219426457 448.0153278054971C642.005264123324 527.9676318337634 501.7120074550187 570.0217017249763 424.1264255078296 590.1711761601032C346.5408435606405 610.32065059523 330.3565240330046 602.1223059950182 275.35232859613774 544.7328050941062C220.34813315927084 487.3433041931942 123.35382606827773 385.1875485585756 160.10628741086867 314.7015718357254C196.85874875345957 244.2155951128753 350.16896917978715 178.6264176640563 451.764143040574 206.4001168244253C553.3593169013608 234.17381598479437 653.5209797619674 368.06302377723085 647.7631219426457 448.0153278054971C642.005264123324 527.9676318337634 501.7120074550187 570.0217017249763 424.1264255078296 590.1711761601032 ">
        </path>
        <path
            d="M632.2778552956565 445.0143822154197C626.8798635900425 519.9696672419193 495.3549354635063 559.3953577649315 422.6184523880165 578.2854900478628C349.88196931252673 597.1756223307941 334.70916975536807 589.4896742680955 283.14273653330537 535.6870171734906C231.57630331124267 481.8843600788857 140.64414041343667 386.11333917143065 175.0995729221156 320.0327359937587C209.5550054307946 253.9521328160867 353.2833370804768 192.4622789578189 448.5288125749644 218.50012192066487C543.774288069452 244.53796488351082 637.6758470012708 370.0590971889201 632.2778552956565 445.0143822154197C626.8798635900425 519.9696672419193 495.3549354635063 559.3953577649315 422.6184523880165 578.2854900478628 ">
        </path>
        <path
            d="M616.7926649426129 442.0134061077641C611.7545393507063 511.97167213249713 488.99793976593924 548.7689832873084 421.11055556214876 566.3997734180443C353.2231713583583 584.0305635487803 339.06189177167687 576.857012023595 290.93322076441837 526.6411987352969C242.80454975715986 476.42538544699903 157.93453105254088 387.0390992667077 190.09293472730792 325.36386963421387C222.25133840207496 263.68864000172 356.3977812751117 206.2981097340034 445.29355840330004 230.60009649932624C534.1893355314885 254.90208326464915 621.8307905345193 372.0551400830311 616.7926649426129 442.0134061077641C611.7545393507063 511.97167213249713 488.99793976593924 548.7689832873084 421.11055556214876 566.3997734180443 ">
        </path>
        <path
            d="M601.3075051071471 439.0124452588975C596.6292456289482 503.9736922818639 482.6409745859503 538.1426240684743 419.6026892538591 554.5140720470149C356.56440392176796 570.8855200255555 343.4146443055638 564.2243650378834 298.72373551310943 517.5953955558924C254.03282672065512 470.9664260739014 175.22495220922326 387.9648746207738 205.08632705007835 330.69501853345804C234.94770189093344 273.42516244614234 359.5122559873247 220.13395576897688 442.05833474921394 242.70008633677674C524.6044135111032 265.26621690457654 605.985764585346 374.0511982359312 601.3075051071471 439.0124452588975C596.6292456289482 503.9736922818639 482.6409745859503 538.1426240684743 419.6026892538591 554.5140720470149 ">
        </path>
        <path
            d="M585.8222842365252 436.0115301863982C581.5038908720339 495.9757582075979 476.2839483708051 527.5163106260077 418.09476191041324 542.6284164523527C359.9055754500214 557.7405222786979 347.7673358042945 551.591763828539 306.5141892266443 508.5496381528551C265.26104264899413 465.5075124771711 192.51531233074934 388.8906957512071 220.07965833769248 336.02621320906945C247.64400434463568 283.1617306669319 362.62666966438144 233.9698475803176 438.8230500599715 254.80012195059442C515.0194304555616 275.63039632087117 590.1406776010165 376.0473021651985 585.8222842365252 436.0115301863982C581.5038908720339 495.9757582075979 476.2839483708051 527.5163106260077 418.09476191041324 542.6284164523527 ">
        </path>
        <path
            d="M570.3370938834814 433.01055407874264C566.3785666326978 487.9777630981757 469.926952673238 516.8899361483847 416.5868650845455 530.7426998225344C363.24677749585294 544.595463496684 352.1200578206033 538.9591015840383 314.3046734577573 499.5038197146614C276.4892890949113 460.0485378452844 209.80570296985354 389.8164558464841 235.0730201428848 341.3573468495246C260.34033731591603 292.89823785256516 365.7411138590163 247.80567835650209 435.58779588830726 266.9000965292558C505.4344779175981 285.9945147020095 574.2956211342652 378.0433450593096 570.3370938834814 433.01055407874264C566.3785666326978 487.9777630981757 469.926952673238 516.8899361483847 416.5868650845455 530.7426998225344 ">
        </path>
        <path
            d="M554.8519187892268 430.0096084886652C551.2532576521508 479.9797985063317 463.56997223446 506.26359218833977 415.0789835174668 518.8570137102939C366.58799480047355 531.4504352322482 356.4727950957011 526.3264698571159 322.0951729476593 490.45803179404584C287.7175507996175 454.5895937309758 227.09610886774686 390.7422464593392 250.06639720686616 346.68851100755785C273.03668554598545 302.63477555577657 368.85557331244024 261.6415396502647 432.352556975432 279.00010162549535C495.8495406384237 296.35866360072595 558.4505799263029 380.0394184709988 554.8519187892268 430.0096084886652C551.2532576521508 479.9797985063317 463.56997223446 506.26359218833977 415.0789835174668 518.8570137102939 ">
        </path>
        <path
            d="M539.3667131773939 427.0086018634315C536.1279181540256 471.9817728793313 457.21296127810376 495.6371871931385 413.5710714328099 506.9712665628973C369.92918158751604 518.3053459326561 360.8255018532208 513.693777095037 329.88564191998324 481.412182838274C298.9457819867456 449.1305885815111 244.386484248062 391.6679760370381 265.0597437532694 352.0196141304349C285.73300325847674 312.37125222383173 371.97000224828605 275.47733990887104 429.1172875449786 291.1000456865786C486.2645728416712 306.72275146428615 542.6055082007624 382.0354308475317 539.3667131773939 427.0086018634315C536.1279181540256 471.9817728793313 457.21296127810376 495.6371871931385 413.5710714328099 506.9712665628973 ">
        </path>
        <path
            d="M523.8815380831393 424.00768679093215C521.0026091734784 463.9838388050653 450.85598083932575 485.01087375067175 412.0631898657312 495.0856109682352C373.27039889213665 505.1603481857985 365.1782391283187 501.0611758856927 337.67614140988525 472.3664254352367C310.17404369145186 443.6716749847807 261.67689014595527 392.5937971674714 280.0531208172507 357.3508088060463C298.42935148854616 322.1078204446212 375.08446170171 289.3132317202118 425.8820486321034 303.2000813003963C476.67963556249674 317.0869308805808 526.7604669928 384.03153477679905 523.8815380831393 424.00768679093215C521.0026091734784 463.9838388050653 450.85598083932575 485.01087375067175 412.0631898657312 495.0856109682352 ">
        </path>
        <path
            d="M508.3963477300955 421.0067106832766C505.87728493414215 455.9858436956431 444.4989851417587 474.38449927304873 410.55529303986344 483.1998943384167C376.6116009379682 492.01528940378466 369.5309611446275 488.428513641192 345.46662564099825 463.320606997043C321.402290137369 438.21270035289405 278.96728078505953 393.5195572627484 295.046482622443 362.68194244650147C311.1256844598265 331.8443276302545 378.1989058963449 303.1490624963962 422.6467944604391 315.30005587905765C467.0946830245333 327.4510492617191 510.91541052604873 386.0275776709101 508.3963477300955 421.0067106832766C505.87728493414215 455.9858436956431 444.4989851417587 474.38449927304873 410.55529303986344 483.1998943384167 ">
        </path>
        <path
            d="M492.9111573770517 418.00574983441004C490.75196069480603 447.9878638450099 438.1419894441916 463.7581400542148 409.0473962139957 471.31419296738727C379.95280298379976 478.8702458805599 373.8836831609363 475.79586665548044 353.2571098721112 454.2748038176385C332.63053658328613 432.7537409797965 296.25767142416373 394.4453326168145 310.03984442763533 368.0130913457457C323.82201743110693 341.58085007467685 381.3133500909798 316.98490853136974 419.4115402887748 327.40004571650815C457.5097304865699 337.8151829016465 495.0703540592973 388.0236358238102 492.9111573770517 418.00574983441004C490.75196069480603 447.9878638450099 438.1419894441916 463.7581400542148 409.0473962139957 471.31419296738727 ">
        </path>
        <path
            d="M477.4259517652189 415.00478898554354C475.62662119668084 439.9898839943768 431.7849784878355 453.1317808353808 407.53948412933886 459.4284915963579C383.29398977084224 465.72520235733504 378.23638991845604 463.16321966976886 361.0475788444351 445.22900063823386C343.8587677704142 427.29478160669885 313.5480468044789 395.37110797088053 325.0331909740385 373.34424024498986C336.5183351435982 351.3173725190992 384.4277790268256 330.8207545663433 416.17627085832146 339.5000355539586C447.9247626898173 348.17931654157394 479.2252823337569 390.0196939767103 477.4259517652189 415.00478898554354C475.62662119668084 439.9898839943768 431.7849784878355 453.1317808353808 407.53948412933886 459.4284915963579 ">
        </path>
        <path
            d="M461.9407614121751 412.00382813667704C460.50129695734466 431.99190414374357 425.42798279026835 442.5054216165468 406.03158730347104 447.54279022532853C386.6351918166738 452.5801588341102 382.5891119347648 450.5305726840573 368.8380630755481 436.1831974588293C355.0870142163314 421.8358222336013 330.83843744358313 396.29688332494663 340.0265527792308 378.6753891442341C349.2146681148786 361.05389496352154 387.54222322146046 344.6566006013168 412.9410166866572 351.6000253914091C438.33981015185384 358.5434501815013 463.3802258670055 392.01575212961046 461.9407614121751 412.00382813667704C460.50129695734466 431.99190414374357 425.42798279026835 442.5054216165468 406.03158730347104 447.54279022532853 ">
        </path>
        <path
            d="M446.4555863179204 409.00288254659955C445.37598797679755 423.9939395518995 419.07100235149034 431.8790776565019 404.52370573639234 435.65710411308817C389.9764091212944 439.43513056967447 386.94184920986265 437.8979409571348 376.6285625654501 427.1374095382138C366.3152759210376 416.37687811929277 348.1288433414764 397.22267393780174 355.0199298432122 384.0065533022674C361.911016344948 370.79043266673295 390.65668267488445 358.49246189507943 409.70577777378196 363.7000304876486C428.75487287267947 368.9075990802178 447.5351846590432 394.01182554129963 446.4555863179204 409.00288254659955C445.37598797679755 423.9939395518995 419.07100235149034 431.8790776565019 404.52370573639234 435.65710411308817 ">
        </path>
        <path
            d="M430.9703959648766 406.00192169773305C430.2506637374614 415.9959597012663 412.71400665392326 421.25271843766797 403.0158089105246 423.7714027420588C393.31761116712596 426.2900870464496 391.29457122617146 425.26529397142315 384.4190467965631 418.09160635880914C377.54352236695473 410.9179187461952 365.4192339805806 398.14844929186785 370.0132916484045 389.3377022015116C374.60734931622835 380.5269551111553 393.7711268695193 372.3283079300529 406.4705236021176 375.80002032509907C419.169920334716 379.27173272014517 431.6901281922918 396.00788369419973 430.9703959648766 406.00192169773305C430.2506637374614 415.9959597012663 412.71400665392326 421.25271843766797 403.0158089105246 423.7714027420588 ">
        </path>
        <path
            d="M415.4851903530438 403.0009608488665C415.1253242393362 407.99797985063316 406.3569956975671 410.62635921883395 401.50789682586776 411.8857013710294C396.65879795416845 413.14504352322484 395.6472779836912 412.6326469857116 392.209515768887 409.0458031794046C388.77175355408286 405.45895937309757 382.7096093608958 399.0742246459339 385.0066381948077 394.6688511007558C387.30366702871964 390.26347755557765 396.88555580536513 386.16415396502646 403.2352541716643 387.9000101625495C409.5849525379635 389.6358663600726 415.8450564667514 398.0039418470999 415.4851903530438 403.0009608488665C415.1253242393362 407.99797985063316 406.3569956975671 410.62635921883395 401.50789682586776 411.8857013710294 ">
        </path>
    </g>
</svg>